<svg width="182" height="124" viewBox="0 0 182 124" fill="none" xmlns="http://www.w3.org/2000/svg">
<path d="M11.0789 102.952L11.0731 102.943C4.32072 92.6016 1 78.9194 1 61.9999C1 45.0814 4.32033 31.3998 11.072 21.0584C19.7475 7.66917 32.8455 1 50.1728 1C67.6121 1 80.7695 7.66652 89.4467 21.0582C91.5895 24.3402 93.3866 27.9586 94.8417 31.9101C96.4082 24.6009 99.9752 18.1551 105.534 12.5987L105.541 12.5925C113.429 4.82803 124.027 1 137.201 1C150.026 1 160.441 4.70908 168.325 12.2246C176.187 19.6022 180.133 28.7702 180.133 39.6528C180.133 54.9292 172.447 67.1243 157.38 76.2058L157.379 76.2059L136.073 89.0417C133.219 90.8869 131.178 92.7501 129.868 94.6114H179.844H181V95.7845V119.012V120.185H179.844H94.3843H93.2287V119.012C93.2287 107.613 95.2173 97.6935 99.2386 89.2893L99.2416 89.2831C103.407 80.7052 110.465 73.5112 120.323 67.6739L11.0789 102.952ZM11.0789 102.952C19.9813 116.326 33.0694 123 50.1728 123C67.3883 123 80.5359 116.329 89.44 102.952L89.4457 102.943C96.1981 92.6016 99.5189 78.9194 99.5189 61.9999C99.5189 58.3778 99.3667 54.9041 99.0612 51.5797L121.765 51.7355L123.353 51.7464L122.876 50.2092C122.219 48.1006 121.889 45.8741 121.889 43.524C121.889 38.827 123.148 35.0687 125.593 32.1527C128.099 29.2956 131.68 27.8048 136.508 27.8048C141.165 27.8048 144.527 29.0398 146.785 31.3323L146.794 31.3416L146.803 31.3505C149.224 33.701 150.433 36.6165 150.433 40.1807C150.433 43.7254 149.565 46.7062 147.873 49.1786C146.158 51.568 143.138 54.1061 138.695 56.7659C138.695 56.7661 138.694 56.7663 138.694 56.7664L120.324 67.6732L11.0789 102.952ZM30.7001 61.9999C30.7001 51.5309 32.0779 43.4612 34.7446 37.7014C36.4013 34.3427 38.5077 31.8859 41.0391 30.263C43.5716 28.6394 46.6003 27.8048 50.1728 27.8048C53.7452 27.8048 56.7739 28.6394 59.3064 30.263C61.841 31.8879 63.9494 34.3488 65.6071 37.714C68.3809 43.3452 69.8187 51.4058 69.8187 61.9999C69.8187 72.5941 68.3809 80.6547 65.6071 86.2859C63.9494 89.6511 61.841 92.112 59.3064 93.7369C56.7739 95.3605 53.7452 96.1951 50.1728 96.1951C46.6003 96.1951 43.5716 95.3605 41.0391 93.7369C38.5077 92.1141 36.4013 89.6572 34.7446 86.2984C32.0779 80.5386 30.7001 72.4689 30.7001 61.9999Z" stroke="url(#paint0_linear_159_61)" stroke-width="2"/>
<defs>
<linearGradient id="paint0_linear_159_61" x1="90.5048" y1="-17.0654" x2="90.5048" y2="96.723" gradientUnits="userSpaceOnUse">
<stop stop-color="#8B8B8B"/>
<stop offset="1" stop-color="#8B8B8B" stop-opacity="0"/>
</linearGradient>
</defs>
</svg>
