<svg width="351" height="41" viewBox="0 0 351 41" fill="none" xmlns="http://www.w3.org/2000/svg">
<path d="M3.2 30.7C2.45333 30.7 1.73 30.42 1.03 29.86C0.376667 29.3 0.05 28.5767 0.05 27.69C0.05 27.3167 0.12 26.92 0.26 26.5L9.08 3.47C9.40667 2.63 9.94333 2 10.69 1.58C11.4367 1.16 12.2067 0.949998 13 0.949998C13.84 0.949998 14.6333 1.16 15.38 1.58C16.1733 2 16.7333 2.63 17.06 3.47L26.51 26.36C26.6033 26.5467 26.65 26.7333 26.65 26.92C26.65 27.1067 26.65 27.2933 26.65 27.48C26.65 28.46 26.3233 29.23 25.67 29.79C25.0167 30.35 24.2933 30.63 23.5 30.63C22.94 30.63 22.38 30.4667 21.82 30.14C21.3067 29.86 20.9333 29.3933 20.7 28.74L18.67 23.28C18.6233 23 18.4367 22.86 18.11 22.86H8.66C8.33333 22.86 8.12333 23 8.03 23.28L6.07 28.81C5.74333 29.4167 5.32333 29.8833 4.81 30.21C4.29667 30.5367 3.76 30.7 3.2 30.7ZM11.18 17.4H15.31C15.59 17.4 15.8 17.3067 15.94 17.12C16.1267 16.8867 16.1733 16.6067 16.08 16.28L14.26 11.31C13.98 10.5633 13.63 10.19 13.21 10.19C12.79 10.19 12.44 10.5867 12.16 11.38L10.41 16.35C10.3167 16.63 10.34 16.8867 10.48 17.12C10.62 17.3067 10.8533 17.4 11.18 17.4ZM30.1609 30.49C29.2743 30.49 28.5276 30.2333 27.9209 29.72C27.3143 29.2067 27.0109 28.5533 27.0109 27.76V12.08C27.0109 11.3333 27.2909 10.7033 27.8509 10.19C28.4576 9.63 29.2276 9.35 30.1609 9.35C31.0009 9.35 31.6776 9.60667 32.1909 10.12C32.7509 10.5867 33.0776 11.17 33.1709 11.87C33.6843 11.0767 34.3843 10.4 35.2709 9.84C36.1576 9.28 37.0909 9 38.0709 9C38.6776 9 39.2609 9.07 39.8209 9.21C40.4743 9.39667 41.0109 9.77 41.4309 10.33C41.8509 10.8433 42.0609 11.45 42.0609 12.15C42.0609 13.13 41.7343 13.9467 41.0809 14.6C40.4743 15.2067 39.7509 15.4167 38.9109 15.23C38.3043 15.09 37.6976 15.02 37.0909 15.02C36.0176 15.02 35.1309 15.3933 34.4309 16.14C33.7309 16.8867 33.3109 18.4033 33.1709 20.69V27.69C33.1709 28.4833 32.8676 29.16 32.2609 29.72C31.7009 30.2333 31.0009 30.49 30.1609 30.49ZM50.8809 30.7C47.7076 30.7 45.0243 29.7667 42.8309 27.9C40.6843 25.9867 39.6109 23.3733 39.6109 20.06C39.6109 16.6067 40.6609 13.9 42.7609 11.94C44.9076 9.98 47.5909 9 50.8109 9C53.0976 9 54.9876 9.42 56.4809 10.26C57.9743 11.1 59.0943 12.1733 59.8409 13.48C60.5876 14.7867 60.9609 16.1633 60.9609 17.61C60.9609 20.0367 59.8876 21.25 57.7409 21.25H46.1209C45.7476 21.25 45.5609 21.4833 45.5609 21.95C45.5609 23.0233 46.1443 23.8867 47.3109 24.54C48.5243 25.1467 49.8776 25.45 51.3709 25.45C52.3043 25.45 53.2376 25.3333 54.1709 25.1C55.1043 24.82 55.9209 24.4233 56.6209 23.91C57.0876 23.5833 57.5776 23.42 58.0909 23.42C58.7909 23.42 59.3743 23.6767 59.8409 24.19C60.3543 24.7033 60.6109 25.31 60.6109 26.01C60.6109 26.85 60.1676 27.6433 59.2809 28.39C58.4409 29.09 57.2043 29.65 55.5709 30.07C53.9843 30.49 52.4209 30.7 50.8809 30.7ZM54.5209 17.19C54.6143 17.19 54.7309 17.1667 54.8709 17.12C55.0576 17.0733 55.1509 16.91 55.1509 16.63C55.1509 15.93 54.7076 15.3 53.8209 14.74C52.9809 14.1333 51.8843 13.83 50.5309 13.83C49.0843 13.83 47.8943 14.1567 46.9609 14.81C46.0743 15.4167 45.6309 16.0467 45.6309 16.7C45.6309 17.0267 45.8176 17.19 46.1909 17.19H54.5209ZM70.0555 11.8C70.0555 10.8667 70.3821 10.1667 71.0355 9.7C71.6888 9.23333 72.4355 9 73.2755 9C73.9288 9 74.4888 9.18667 74.9555 9.56C75.4688 9.88666 75.8188 10.3533 76.0055 10.96L80.3455 21.53C80.5788 22.1367 80.9055 22.44 81.3255 22.44C81.7455 22.44 82.0488 22.1367 82.2355 21.53L86.0155 10.96C86.2488 10.3067 86.6221 9.81667 87.1355 9.49C87.6955 9.16333 88.2788 9 88.8855 9C89.6788 9 90.4021 9.25667 91.0555 9.77C91.7555 10.2833 92.1055 10.96 92.1055 11.8C92.1055 12.2667 92.0121 12.71 91.8255 13.13L80.9055 38.33C80.5788 39.03 80.1588 39.52 79.6455 39.8C79.1788 40.1267 78.6888 40.29 78.1755 40.29C77.3355 40.29 76.5655 39.9867 75.8655 39.38C75.2121 38.82 74.8855 38.1433 74.8855 37.35C74.8855 36.93 74.9788 36.5567 75.1655 36.23L78.9455 29.51C78.1521 29.2767 77.5221 28.6933 77.0555 27.76L70.2655 13.06C70.1255 12.64 70.0555 12.22 70.0555 11.8ZM101.079 30.7C99.0725 30.7 97.2291 30.2333 95.5491 29.3C93.8691 28.3667 92.5158 27.0833 91.4891 25.45C90.5091 23.77 90.0191 21.88 90.0191 19.78C90.0191 17.6333 90.5091 15.7667 91.4891 14.18C92.5158 12.5467 93.8691 11.2867 95.5491 10.4C97.2291 9.46667 99.0725 9 101.079 9C103.132 9 104.976 9.46667 106.609 10.4C108.289 11.2867 109.619 12.5467 110.599 14.18C111.579 15.7667 112.069 17.6333 112.069 19.78C112.069 21.88 111.579 23.77 110.599 25.45C109.619 27.0833 108.289 28.3667 106.609 29.3C104.976 30.2333 103.132 30.7 101.079 30.7ZM101.079 25.03C102.526 25.03 103.692 24.54 104.579 23.56C105.512 22.5333 105.979 21.2733 105.979 19.78C105.979 18.24 105.512 17.0033 104.579 16.07C103.692 15.1367 102.526 14.67 101.079 14.67C99.6791 14.67 98.4891 15.1367 97.5091 16.07C96.5758 17.0033 96.1091 18.24 96.1091 19.78C96.1091 21.2733 96.5758 22.5333 97.5091 23.56C98.4891 24.54 99.6791 25.03 101.079 25.03ZM126.592 12.01C126.592 11.1233 126.872 10.4 127.432 9.84C128.039 9.28 128.785 9 129.672 9C130.559 9 131.282 9.30333 131.842 9.91C132.449 10.47 132.752 11.17 132.752 12.01V21.88C132.752 23.7933 132.262 25.4267 131.282 26.78C130.302 28.0867 129.042 29.0667 127.502 29.72C125.962 30.3733 124.329 30.7 122.602 30.7C120.922 30.7 119.312 30.3733 117.772 29.72C116.232 29.0667 114.949 28.0867 113.922 26.78C112.942 25.4267 112.452 23.7933 112.452 21.88V12.01C112.452 11.1233 112.732 10.4 113.292 9.84C113.899 9.28 114.645 9 115.532 9C116.419 9 117.142 9.30333 117.702 9.91C118.309 10.47 118.612 11.17 118.612 12.01V21.6C118.612 22.58 118.985 23.3967 119.732 24.05C120.479 24.7033 121.435 25.03 122.602 25.03C123.769 25.03 124.725 24.7033 125.472 24.05C126.219 23.3967 126.592 22.58 126.592 21.6V12.01ZM154.14 30.7C151.014 30.7 148.47 29.72 146.51 27.76C144.597 25.7533 143.64 23.0933 143.64 19.78C143.64 16.4667 144.574 13.8533 146.44 11.94C148.354 9.98 150.85 9 153.93 9C156.124 9 158.037 9.77 159.67 11.31C159.857 10.75 160.207 10.2833 160.72 9.91C161.234 9.53667 161.84 9.35 162.54 9.35C163.474 9.35 164.22 9.63 164.78 10.19C165.387 10.7033 165.69 11.3333 165.69 12.08V27.97C165.69 28.7633 165.387 29.4167 164.78 29.93C164.22 30.4433 163.474 30.7 162.54 30.7C161 30.7 160.044 30.0233 159.67 28.67C158.177 30.0233 156.334 30.7 154.14 30.7ZM154.63 25.03C156.124 25.03 157.314 24.54 158.2 23.56C159.087 22.5333 159.53 21.2733 159.53 19.78C159.53 18.24 159.087 17.0033 158.2 16.07C157.314 15.1367 156.124 14.67 154.63 14.67C153.184 14.67 151.994 15.1367 151.06 16.07C150.174 17.0033 149.73 18.24 149.73 19.78C149.73 21.2733 150.174 22.5333 151.06 23.56C151.994 24.54 153.184 25.03 154.63 25.03Z" fill="#181670"/>
<path d="M187.762 30.7C185.615 30.7 183.609 30.35 181.742 29.65C179.875 28.9033 178.405 27.9233 177.332 26.71C176.819 26.15 176.562 25.4967 176.562 24.75C176.562 23.9567 176.865 23.2567 177.472 22.65C178.079 22.0433 178.802 21.74 179.642 21.74C180.435 21.74 181.112 22.02 181.672 22.58C182.465 23.3267 183.469 23.91 184.682 24.33C185.895 24.75 187.085 24.96 188.252 24.96C189.465 24.96 190.515 24.7033 191.402 24.19C192.289 23.63 192.732 22.7667 192.732 21.6C192.732 20.62 192.312 19.8733 191.472 19.36C190.679 18.8 189.325 18.3567 187.412 18.03C184.005 17.47 181.439 16.5367 179.712 15.23C177.985 13.8767 177.122 11.9867 177.122 9.56C177.122 6.94667 178.125 4.87 180.132 3.33C182.139 1.74333 184.775 0.949998 188.042 0.949998C191.402 0.949998 194.085 1.81333 196.092 3.54C196.885 4.19333 197.282 4.96333 197.282 5.85C197.282 6.59666 196.979 7.25 196.372 7.81C195.812 8.32333 195.135 8.58 194.342 8.58C193.735 8.58 193.175 8.41666 192.662 8.09C190.889 6.97 189.022 6.41 187.062 6.41C185.895 6.41 184.915 6.64333 184.122 7.11C183.329 7.57667 182.932 8.27667 182.932 9.21C182.932 10.19 183.539 10.96 184.752 11.52C186.012 12.08 187.832 12.5933 190.212 13.06C191.519 13.2933 192.802 13.7133 194.062 14.32C195.369 14.88 196.442 15.7433 197.282 16.91C198.169 18.0767 198.612 19.6633 198.612 21.67C198.612 24.33 197.585 26.5 195.532 28.18C193.525 29.86 190.935 30.7 187.762 30.7ZM208.437 30.7C206.43 30.7 204.773 30.1167 203.467 28.95C202.16 27.7833 201.507 25.9867 201.507 23.56V16C201.507 15.5333 201.273 15.3 200.807 15.3H199.757C198.917 15.3 198.287 15.0433 197.867 14.53C197.447 14.0167 197.237 13.3633 197.237 12.57C197.237 11.73 197.447 11.0533 197.867 10.54C198.287 9.98 198.917 9.7 199.757 9.7H200.807C201.273 9.7 201.507 9.46667 201.507 9V3.82C201.507 3.02666 201.787 2.35 202.347 1.79C202.907 1.23 203.63 0.949998 204.517 0.949998C205.403 0.949998 206.127 1.23 206.687 1.79C207.293 2.30333 207.597 2.98 207.597 3.82V9C207.597 9.46667 207.83 9.7 208.297 9.7H210.887C211.68 9.7 212.333 9.98 212.847 10.54C213.407 11.1 213.687 11.7767 213.687 12.57C213.687 13.3633 213.407 14.0167 212.847 14.53C212.333 15.0433 211.657 15.3 210.817 15.3H208.297C207.83 15.3 207.597 15.5333 207.597 16V22.58C207.597 23.42 207.737 24.0033 208.017 24.33C208.343 24.6567 208.74 24.82 209.207 24.82C209.393 24.82 209.767 24.7733 210.327 24.68C210.887 24.54 211.237 24.47 211.377 24.47C212.123 24.47 212.753 24.75 213.267 25.31C213.78 25.87 214.037 26.5467 214.037 27.34C214.037 27.9467 213.85 28.5067 213.477 29.02C213.15 29.5333 212.613 29.9067 211.867 30.14C211.26 30.3267 210.677 30.4667 210.117 30.56C209.557 30.6533 208.997 30.7 208.437 30.7ZM223.129 30.7C220.002 30.7 217.459 29.72 215.499 27.76C213.585 25.7533 212.629 23.0933 212.629 19.78C212.629 16.4667 213.562 13.8533 215.429 11.94C217.342 9.98 219.839 9 222.919 9C225.112 9 227.025 9.77 228.659 11.31C228.845 10.75 229.195 10.2833 229.709 9.91C230.222 9.53667 230.829 9.35 231.529 9.35C232.462 9.35 233.209 9.63 233.769 10.19C234.375 10.7033 234.679 11.3333 234.679 12.08V27.97C234.679 28.7633 234.375 29.4167 233.769 29.93C233.209 30.4433 232.462 30.7 231.529 30.7C229.989 30.7 229.032 30.0233 228.659 28.67C227.165 30.0233 225.322 30.7 223.129 30.7ZM223.619 25.03C225.112 25.03 226.302 24.54 227.189 23.56C228.075 22.5333 228.519 21.2733 228.519 19.78C228.519 18.24 228.075 17.0033 227.189 16.07C226.302 15.1367 225.112 14.67 223.619 14.67C222.172 14.67 220.982 15.1367 220.049 16.07C219.162 17.0033 218.719 18.24 218.719 19.78C218.719 21.2733 219.162 22.5333 220.049 23.56C220.982 24.54 222.172 25.03 223.619 25.03ZM239.587 30.49C238.7 30.49 237.953 30.2333 237.347 29.72C236.74 29.2067 236.437 28.5533 236.437 27.76V12.08C236.437 11.3333 236.717 10.7033 237.277 10.19C237.883 9.63 238.653 9.35 239.587 9.35C240.427 9.35 241.103 9.60667 241.617 10.12C242.177 10.5867 242.503 11.17 242.597 11.87C243.11 11.0767 243.81 10.4 244.697 9.84C245.583 9.28 246.517 9 247.497 9C248.103 9 248.687 9.07 249.247 9.21C249.9 9.39667 250.437 9.77 250.857 10.33C251.277 10.8433 251.487 11.45 251.487 12.15C251.487 13.13 251.16 13.9467 250.507 14.6C249.9 15.2067 249.177 15.4167 248.337 15.23C247.73 15.09 247.123 15.02 246.517 15.02C245.443 15.02 244.557 15.3933 243.857 16.14C243.157 16.8867 242.737 18.4033 242.597 20.69V27.69C242.597 28.4833 242.293 29.16 241.687 29.72C241.127 30.2333 240.427 30.49 239.587 30.49ZM259.87 30.7C257.864 30.7 256.207 30.1167 254.9 28.95C253.594 27.7833 252.94 25.9867 252.94 23.56V16C252.94 15.5333 252.707 15.3 252.24 15.3H251.19C250.35 15.3 249.72 15.0433 249.3 14.53C248.88 14.0167 248.67 13.3633 248.67 12.57C248.67 11.73 248.88 11.0533 249.3 10.54C249.72 9.98 250.35 9.7 251.19 9.7H252.24C252.707 9.7 252.94 9.46667 252.94 9V3.82C252.94 3.02666 253.22 2.35 253.78 1.79C254.34 1.23 255.064 0.949998 255.95 0.949998C256.837 0.949998 257.56 1.23 258.12 1.79C258.727 2.30333 259.03 2.98 259.03 3.82V9C259.03 9.46667 259.264 9.7 259.73 9.7H262.32C263.114 9.7 263.767 9.98 264.28 10.54C264.84 11.1 265.12 11.7767 265.12 12.57C265.12 13.3633 264.84 14.0167 264.28 14.53C263.767 15.0433 263.09 15.3 262.25 15.3H259.73C259.264 15.3 259.03 15.5333 259.03 16V22.58C259.03 23.42 259.17 24.0033 259.45 24.33C259.777 24.6567 260.174 24.82 260.64 24.82C260.827 24.82 261.2 24.7733 261.76 24.68C262.32 24.54 262.67 24.47 262.81 24.47C263.557 24.47 264.187 24.75 264.7 25.31C265.214 25.87 265.47 26.5467 265.47 27.34C265.47 27.9467 265.284 28.5067 264.91 29.02C264.584 29.5333 264.047 29.9067 263.3 30.14C262.694 30.3267 262.11 30.4667 261.55 30.56C260.99 30.6533 260.43 30.7 259.87 30.7ZM278.552 15.65C279.205 15.65 279.742 15.86 280.162 16.28C280.629 16.6533 280.862 17.1433 280.862 17.75C280.862 18.3567 280.629 18.87 280.162 19.29C279.742 19.6633 279.205 19.85 278.552 19.85H267.702C267.049 19.85 266.512 19.6633 266.092 19.29C265.672 18.87 265.462 18.3567 265.462 17.75C265.462 17.0967 265.672 16.5833 266.092 16.21C266.512 15.8367 267.049 15.65 267.702 15.65H278.552ZM301.498 4.31C301.498 3.47 301.802 2.77 302.408 2.21C303.015 1.60333 303.762 1.3 304.648 1.3C305.535 1.3 306.282 1.58 306.888 2.14C307.495 2.7 307.798 3.42333 307.798 4.31V19.5C307.798 22.9067 306.678 25.6367 304.438 27.69C302.198 29.6967 299.212 30.7 295.478 30.7C291.792 30.7 288.828 29.6967 286.588 27.69C284.395 25.6367 283.298 22.9067 283.298 19.5V4.31C283.298 3.42333 283.578 2.72333 284.138 2.21C284.745 1.65 285.515 1.37 286.448 1.37C287.382 1.37 288.128 1.65 288.688 2.21C289.295 2.72333 289.598 3.42333 289.598 4.31V19.5C289.598 21.1333 290.135 22.4633 291.208 23.49C292.282 24.47 293.705 24.96 295.478 24.96C297.298 24.96 298.745 24.47 299.818 23.49C300.938 22.4633 301.498 21.1333 301.498 19.5V4.31ZM321.619 30.7C319.565 30.7 317.839 30.07 316.439 28.81V37.35C316.439 38.1433 316.135 38.7967 315.529 39.31C314.969 39.87 314.269 40.15 313.429 40.15C312.542 40.15 311.795 39.8933 311.189 39.38C310.582 38.8667 310.279 38.2133 310.279 37.42V12.08C310.279 11.3333 310.559 10.7033 311.119 10.19C311.725 9.63 312.495 9.35 313.429 9.35C314.129 9.35 314.735 9.53667 315.249 9.91C315.762 10.2833 316.112 10.75 316.299 11.31C317.885 9.77 319.729 9 321.829 9C324.909 9 327.359 9.98 329.179 11.94C331.045 13.8533 331.979 16.4667 331.979 19.78C331.979 23.0933 331.045 25.7533 329.179 27.76C327.312 29.72 324.792 30.7 321.619 30.7ZM321.129 25.03C322.575 25.03 323.719 24.54 324.559 23.56C325.445 22.5333 325.889 21.2733 325.889 19.78C325.889 18.24 325.445 17.0033 324.559 16.07C323.719 15.1367 322.575 14.67 321.129 14.67C319.729 14.67 318.585 15.1367 317.699 16.07C316.859 17.0033 316.439 18.24 316.439 19.78C316.439 21.2733 316.859 22.5333 317.699 23.56C318.585 24.54 319.729 25.03 321.129 25.03ZM343.677 19.64C343.677 20.48 343.42 21.1567 342.907 21.67C342.393 22.1367 341.693 22.37 340.807 22.37C339.967 22.37 339.267 22.1367 338.707 21.67C338.147 21.1567 337.867 20.48 337.867 19.64V18.31C337.867 16.91 338.31 15.79 339.197 14.95C340.083 14.0633 340.947 13.3167 341.787 12.71C343.7 11.2633 344.657 9.79333 344.657 8.3C344.657 7.36667 344.353 6.69 343.747 6.27C343.14 5.80333 342.347 5.57 341.367 5.57C340.48 5.57 339.757 5.78 339.197 6.2C338.637 6.57333 338.333 7.15667 338.287 7.95C338.24 8.55667 337.913 9.11667 337.307 9.63C336.747 10.1433 336.07 10.4 335.277 10.4C334.483 10.4 333.783 10.12 333.177 9.56C332.617 8.95333 332.337 8.3 332.337 7.6C332.337 6.24667 332.733 5.01 333.527 3.89C334.367 2.77 335.463 1.88333 336.817 1.23C338.217 0.576666 339.757 0.249999 341.437 0.249999C344.05 0.249999 346.22 0.949999 347.947 2.35C349.673 3.75 350.537 5.57 350.537 7.81C350.537 10.0033 350.117 11.6367 349.277 12.71C348.437 13.7833 347.433 14.74 346.267 15.58C345.333 16.2333 344.657 16.77 344.237 17.19C343.863 17.61 343.677 17.9833 343.677 18.31V19.64ZM341.577 31.75C340.457 31.75 339.5 31.4 338.707 30.7C337.96 30 337.587 29.16 337.587 28.18C337.587 27.1533 337.96 26.2667 338.707 25.52C339.5 24.7733 340.457 24.4 341.577 24.4C342.603 24.4 343.467 24.7733 344.167 25.52C344.913 26.2667 345.287 27.1533 345.287 28.18C345.287 29.16 344.913 30 344.167 30.7C343.467 31.4 342.603 31.75 341.577 31.75Z" fill="#F59E0B"/>
<path d="M175.162 38.75H352.987V42.25H175.162V38.75Z" fill="#F59E0B"/>
</svg>
