<svg width="50" height="50" viewBox="0 0 50 50" fill="none" xmlns="http://www.w3.org/2000/svg">
<path d="M6.25 23.4377C6.25 23.8521 6.41462 24.2496 6.70765 24.5426C7.00067 24.8356 7.3981 25.0002 7.8125 25.0002H38.4156L31.7094 31.7065C31.4248 32.0012 31.2673 32.3959 31.2708 32.8055C31.2744 33.2152 31.4387 33.6071 31.7284 33.8968C32.0181 34.1865 32.41 34.3509 32.8197 34.3544C33.2294 34.358 33.6241 34.2005 33.9188 33.9159L43.2938 24.5409C43.4383 24.3971 43.5531 24.2262 43.6314 24.038C43.7097 23.8497 43.75 23.6479 43.75 23.444V23.4377C43.75 23.2346 43.7094 23.0315 43.6281 22.8409C43.5503 22.6514 43.4355 22.4794 43.2906 22.3346L33.9156 12.9596C33.6209 12.675 33.2262 12.5175 32.8166 12.5211C32.4069 12.5246 32.015 12.6889 31.7253 12.9786C31.4356 13.2683 31.2713 13.6602 31.2677 14.0699C31.2641 14.4796 31.4216 14.8743 31.7062 15.169L38.4156 21.8752H7.8125C7.3981 21.8752 7.00067 22.0399 6.70765 22.3329C6.41462 22.6259 6.25 23.0233 6.25 23.4377V23.4377Z" fill="black"/>
</svg>
