<svg width="171" height="36" viewBox="0 0 171 36" fill="none" xmlns="http://www.w3.org/2000/svg">
<path d="M28 31.8225C26.9867 32.6225 25.44 33.3159 23.36 33.9025C21.28 34.4892 19.2533 34.7825 17.28 34.7825C13.9733 34.7825 11.0133 34.0625 8.4 32.6225C5.78667 31.1292 3.73333 29.0759 2.24 26.4625C0.746667 23.8492 2.98023e-08 20.8892 2.98023e-08 17.5825C2.98023e-08 14.1159 0.72 11.1292 2.16 8.62254C3.65333 6.11588 5.70667 4.19588 8.32 2.86254C10.9333 1.47588 13.9733 0.782542 17.44 0.782542C18.88 0.782542 20.32 0.915875 21.76 1.18254C23.2533 1.44921 24.6133 1.87587 25.84 2.46254C26.48 2.78254 26.9333 3.20921 27.2 3.74254C27.52 4.22254 27.68 4.75588 27.68 5.34254C27.68 6.19588 27.36 6.99588 26.72 7.74254C26.1333 8.43588 25.3333 8.78254 24.32 8.78254C23.8933 8.78254 23.44 8.70254 22.96 8.54254C22 8.16921 20.96 7.87588 19.84 7.66254C18.72 7.39588 17.7333 7.26254 16.88 7.26254C14.1067 7.26254 11.7867 8.19588 9.92 10.0625C8.10667 11.9292 7.2 14.4359 7.2 17.5825C7.2 20.9425 8.13333 23.5825 10 25.5025C11.92 27.4225 14.3733 28.3825 17.36 28.3825C18.5867 28.3825 19.8933 28.1692 21.28 27.7425C22.6667 27.3159 23.7867 26.7825 24.64 26.1425C25.2267 25.7692 25.8667 25.5825 26.56 25.5825C27.4667 25.5825 28.1867 25.9025 28.72 26.5425C29.3067 27.1292 29.6 27.8759 29.6 28.7825C29.6 29.9559 29.0667 30.9692 28 31.8225ZM41.4431 34.7825C39.1498 34.7825 37.0431 34.2492 35.1231 33.1825C33.2031 32.1159 31.6565 30.6492 30.4831 28.7825C29.3631 26.8625 28.8031 24.7025 28.8031 22.3025C28.8031 19.8492 29.3631 17.7159 30.4831 15.9025C31.6565 14.0359 33.2031 12.5959 35.1231 11.5825C37.0431 10.5159 39.1498 9.98254 41.4431 9.98254C43.7898 9.98254 45.8965 10.5159 47.7631 11.5825C49.6831 12.5959 51.2031 14.0359 52.3231 15.9025C53.4431 17.7159 54.0031 19.8492 54.0031 22.3025C54.0031 24.7025 53.4431 26.8625 52.3231 28.7825C51.2031 30.6492 49.6831 32.1159 47.7631 33.1825C45.8965 34.2492 43.7898 34.7825 41.4431 34.7825ZM41.4431 28.3025C43.0965 28.3025 44.4298 27.7425 45.4431 26.6225C46.5098 25.4492 47.0431 24.0092 47.0431 22.3025C47.0431 20.5425 46.5098 19.1292 45.4431 18.0625C44.4298 16.9959 43.0965 16.4625 41.4431 16.4625C39.8431 16.4625 38.4831 16.9959 37.3631 18.0625C36.2965 19.1292 35.7631 20.5425 35.7631 22.3025C35.7631 24.0092 36.2965 25.4492 37.3631 26.6225C38.4831 27.7425 39.8431 28.3025 41.4431 28.3025ZM74.9206 34.7825C73.9073 34.7825 73.054 34.4892 72.3606 33.9025C71.7206 33.3159 71.4006 32.5692 71.4006 31.6625V21.9025C71.4006 19.9292 70.9473 18.5159 70.0406 17.6625C69.1873 16.8092 68.1206 16.3825 66.8406 16.3825C65.5073 16.3825 64.3873 16.8092 63.4806 17.6625C62.6273 18.5159 62.094 19.5025 61.8806 20.6225V31.3425C61.8806 32.2492 61.534 33.0225 60.8406 33.6625C60.2006 34.2492 59.4006 34.5425 58.4406 34.5425C57.4273 34.5425 56.574 34.2492 55.8806 33.6625C55.1873 33.0759 54.8406 32.3292 54.8406 31.4225V13.5025C54.8406 12.6492 55.1606 11.9292 55.8006 11.3425C56.494 10.7025 57.374 10.3825 58.4406 10.3825C59.294 10.3825 60.014 10.6225 60.6006 11.1025C61.1873 11.5292 61.5873 12.0892 61.8006 12.7825C63.2406 10.9159 65.4273 9.98254 68.3606 9.98254C71.3473 9.98254 73.774 10.8625 75.6406 12.6225C77.5073 14.3825 78.4406 17.1825 78.4406 21.0225V31.8225C78.4406 32.6759 78.094 33.3959 77.4006 33.9825C76.7606 34.5159 75.934 34.7825 74.9206 34.7825ZM90.45 34.7825C88.1567 34.7825 86.2633 34.1159 84.77 32.7825C83.2767 31.4492 82.53 29.3959 82.53 26.6225V17.9825C82.53 17.4492 82.2633 17.1825 81.73 17.1825H80.53C79.57 17.1825 78.85 16.8892 78.37 16.3025C77.89 15.7159 77.65 14.9692 77.65 14.0625C77.65 13.1025 77.89 12.3292 78.37 11.7425C78.85 11.1025 79.57 10.7825 80.53 10.7825H81.73C82.2633 10.7825 82.53 10.5159 82.53 9.98254V4.06254C82.53 3.15588 82.85 2.38254 83.49 1.74254C84.13 1.10254 84.9567 0.782542 85.97 0.782542C86.9833 0.782542 87.81 1.10254 88.45 1.74254C89.1433 2.32921 89.49 3.10254 89.49 4.06254V9.98254C89.49 10.5159 89.7567 10.7825 90.29 10.7825H93.25C94.1567 10.7825 94.9033 11.1025 95.49 11.7425C96.13 12.3825 96.45 13.1559 96.45 14.0625C96.45 14.9692 96.13 15.7159 95.49 16.3025C94.9033 16.8892 94.13 17.1825 93.17 17.1825H90.29C89.7567 17.1825 89.49 17.4492 89.49 17.9825V25.5025C89.49 26.4625 89.65 27.1292 89.97 27.5025C90.3433 27.8759 90.7967 28.0625 91.33 28.0625C91.5433 28.0625 91.97 28.0092 92.61 27.9025C93.25 27.7425 93.65 27.6625 93.81 27.6625C94.6633 27.6625 95.3833 27.9825 95.97 28.6225C96.5567 29.2625 96.85 30.0359 96.85 30.9425C96.85 31.6359 96.6367 32.2759 96.21 32.8625C95.8367 33.4492 95.2233 33.8759 94.37 34.1425C93.6767 34.3559 93.01 34.5159 92.37 34.6225C91.73 34.7292 91.09 34.7825 90.45 34.7825ZM107.241 34.7825C103.667 34.7825 100.761 33.6625 98.5206 31.4225C96.334 29.1292 95.2406 26.0892 95.2406 22.3025C95.2406 18.5159 96.3073 15.5292 98.4406 13.3425C100.627 11.1025 103.481 9.98254 107.001 9.98254C109.507 9.98254 111.694 10.8625 113.561 12.6225C113.774 11.9825 114.174 11.4492 114.761 11.0225C115.347 10.5959 116.041 10.3825 116.841 10.3825C117.907 10.3825 118.761 10.7025 119.401 11.3425C120.094 11.9292 120.441 12.6492 120.441 13.5025V31.6625C120.441 32.5692 120.094 33.3159 119.401 33.9025C118.761 34.4892 117.907 34.7825 116.841 34.7825C115.081 34.7825 113.987 34.0092 113.561 32.4625C111.854 34.0092 109.747 34.7825 107.241 34.7825ZM107.801 28.3025C109.507 28.3025 110.867 27.7425 111.881 26.6225C112.894 25.4492 113.401 24.0092 113.401 22.3025C113.401 20.5425 112.894 19.1292 111.881 18.0625C110.867 16.9959 109.507 16.4625 107.801 16.4625C106.147 16.4625 104.787 16.9959 103.721 18.0625C102.707 19.1292 102.201 20.5425 102.201 22.3025C102.201 24.0092 102.707 25.4492 103.721 26.6225C104.787 27.7425 106.147 28.3025 107.801 28.3025ZM133.57 34.7825C131.33 34.7825 129.223 34.2759 127.25 33.2625C125.33 32.2492 123.783 30.7825 122.61 28.8625C121.437 26.9425 120.85 24.6492 120.85 21.9825C120.903 18.3025 122.103 15.3959 124.45 13.2625C126.797 11.0759 129.837 9.98254 133.57 9.98254C135.01 9.98254 136.423 10.1425 137.81 10.4625C139.197 10.7825 140.397 11.3692 141.41 12.2225C142.21 12.8625 142.61 13.6892 142.61 14.7025C142.61 15.5559 142.29 16.3292 141.65 17.0225C141.063 17.7159 140.317 18.0625 139.41 18.0625C138.823 18.0625 138.29 17.9025 137.81 17.5825C137.01 17.1559 136.29 16.8625 135.65 16.7025C135.063 16.5425 134.397 16.4625 133.65 16.4625C131.89 16.4625 130.45 16.9692 129.33 17.9825C128.21 18.9959 127.65 20.3559 127.65 22.0625C127.65 24.0359 128.263 25.5825 129.49 26.7025C130.717 27.7692 132.157 28.3025 133.81 28.3025C135.677 28.3025 137.437 27.6092 139.09 26.2225C139.73 25.7425 140.343 25.5025 140.93 25.5025C141.783 25.5025 142.503 25.8492 143.09 26.5425C143.73 27.2359 144.05 28.0359 144.05 28.9425C144.05 29.3159 143.97 29.7425 143.81 30.2225C143.65 30.6492 143.357 31.0759 142.93 31.5025C141.49 32.6759 139.943 33.5025 138.29 33.9825C136.69 34.5159 135.117 34.7825 133.57 34.7825ZM154.466 34.7825C152.172 34.7825 150.279 34.1159 148.786 32.7825C147.292 31.4492 146.546 29.3959 146.546 26.6225V17.9825C146.546 17.4492 146.279 17.1825 145.746 17.1825H144.546C143.586 17.1825 142.866 16.8892 142.386 16.3025C141.906 15.7159 141.666 14.9692 141.666 14.0625C141.666 13.1025 141.906 12.3292 142.386 11.7425C142.866 11.1025 143.586 10.7825 144.546 10.7825H145.746C146.279 10.7825 146.546 10.5159 146.546 9.98254V4.06254C146.546 3.15588 146.866 2.38254 147.506 1.74254C148.146 1.10254 148.972 0.782542 149.986 0.782542C150.999 0.782542 151.826 1.10254 152.466 1.74254C153.159 2.32921 153.506 3.10254 153.506 4.06254V9.98254C153.506 10.5159 153.772 10.7825 154.306 10.7825H157.266C158.172 10.7825 158.919 11.1025 159.506 11.7425C160.146 12.3825 160.466 13.1559 160.466 14.0625C160.466 14.9692 160.146 15.7159 159.506 16.3025C158.919 16.8892 158.146 17.1825 157.186 17.1825H154.306C153.772 17.1825 153.506 17.4492 153.506 17.9825V25.5025C153.506 26.4625 153.666 27.1292 153.986 27.5025C154.359 27.8759 154.812 28.0625 155.346 28.0625C155.559 28.0625 155.986 28.0092 156.626 27.9025C157.266 27.7425 157.666 27.6625 157.826 27.6625C158.679 27.6625 159.399 27.9825 159.986 28.6225C160.572 29.2625 160.866 30.0359 160.866 30.9425C160.866 31.6359 160.652 32.2759 160.226 32.8625C159.852 33.4492 159.239 33.8759 158.386 34.1425C157.692 34.3559 157.026 34.5159 156.386 34.6225C155.746 34.7292 155.106 34.7825 154.466 34.7825Z" fill="#F59E0B"/>
<path d="M166.216 35.9825C164.936 35.9825 163.843 35.5825 162.936 34.7825C162.083 33.9825 161.656 33.0225 161.656 31.9025C161.656 30.7292 162.083 29.7159 162.936 28.8625C163.843 28.0092 164.936 27.5825 166.216 27.5825C167.39 27.5825 168.376 28.0092 169.176 28.8625C170.03 29.7159 170.456 30.7292 170.456 31.9025C170.456 33.0225 170.03 33.9825 169.176 34.7825C168.376 35.5825 167.39 35.9825 166.216 35.9825Z" fill="#181670"/>
</svg>
