<svg width="168" height="48" viewBox="0 0 168 48" fill="none" xmlns="http://www.w3.org/2000/svg">
<path d="M4.2 36.8C3.24 36.8 2.38667 36.48 1.64 35.84C0.946667 35.1467 0.6 34.3467 0.6 33.44V8.8C0.6 7.25333 1.08 6 2.04 5.04C3 4.08 4.25333 3.6 5.8 3.6H13.88C17.08 3.6 19.72 4.50666 21.8 6.32C23.9333 8.13333 25 10.5333 25 13.52C25 16.7733 23.96 19.4133 21.88 21.44C19.8 23.4667 17.16 24.48 13.96 24.48H9.24C8.17333 24.48 7.64 25.0133 7.64 26.08L7.8 33.44C7.8 34.3467 7.42667 35.1467 6.68 35.84C5.98667 36.48 5.16 36.8 4.2 36.8ZM8.84 18.08H13.08C16.3867 18.08 18.04 16.72 18.04 14C18.04 11.3333 16.4933 10 13.4 10H8.84C8.04 10 7.64 10.4 7.64 11.2V16.88C7.64 17.68 8.04 18.08 8.84 18.08ZM29.4094 36.56C28.396 36.56 27.5427 36.2667 26.8494 35.68C26.156 35.0933 25.8094 34.3467 25.8094 33.44V15.52C25.8094 14.6667 26.1294 13.9467 26.7694 13.36C27.4627 12.72 28.3427 12.4 29.4094 12.4C30.3694 12.4 31.1427 12.6933 31.7294 13.28C32.3694 13.8133 32.7427 14.48 32.8494 15.28C33.436 14.3733 34.236 13.6 35.2494 12.96C36.2627 12.32 37.3294 12 38.4494 12C39.1427 12 39.8094 12.08 40.4494 12.24C41.196 12.4533 41.8094 12.88 42.2894 13.52C42.7694 14.1067 43.0094 14.8 43.0094 15.6C43.0094 16.72 42.636 17.6533 41.8894 18.4C41.196 19.0933 40.3694 19.3333 39.4094 19.12C38.716 18.96 38.0227 18.88 37.3294 18.88C36.1027 18.88 35.0894 19.3067 34.2894 20.16C33.4894 21.0133 33.0094 22.7467 32.8494 25.36V33.36C32.8494 34.2667 32.5027 35.04 31.8094 35.68C31.1694 36.2667 30.3694 36.56 29.4094 36.56ZM52.8494 36.8C50.556 36.8 48.4494 36.2667 46.5294 35.2C44.6094 34.1333 43.0627 32.6667 41.8894 30.8C40.7694 28.88 40.2094 26.72 40.2094 24.32C40.2094 21.8667 40.7694 19.7333 41.8894 17.92C43.0627 16.0533 44.6094 14.6133 46.5294 13.6C48.4494 12.5333 50.556 12 52.8494 12C55.196 12 57.3027 12.5333 59.1694 13.6C61.0894 14.6133 62.6094 16.0533 63.7294 17.92C64.8494 19.7333 65.4094 21.8667 65.4094 24.32C65.4094 26.72 64.8494 28.88 63.7294 30.8C62.6094 32.6667 61.0894 34.1333 59.1694 35.2C57.3027 36.2667 55.196 36.8 52.8494 36.8ZM52.8494 30.32C54.5027 30.32 55.836 29.76 56.8494 28.64C57.916 27.4667 58.4494 26.0267 58.4494 24.32C58.4494 22.56 57.916 21.1467 56.8494 20.08C55.836 19.0133 54.5027 18.48 52.8494 18.48C51.2494 18.48 49.8894 19.0133 48.7694 20.08C47.7027 21.1467 47.1694 22.56 47.1694 24.32C47.1694 26.0267 47.7027 27.4667 48.7694 28.64C49.8894 29.76 51.2494 30.32 52.8494 30.32ZM65.2069 47.6C64.5669 47.6 64.0069 47.5467 63.5269 47.44C63.0469 47.3333 62.5935 47.2267 62.1669 47.12C61.3669 46.8533 60.7802 46.4267 60.4069 45.84C60.0335 45.2533 59.8469 44.64 59.8469 44C59.8469 43.04 60.1935 42.1867 60.8869 41.44C61.5802 40.6933 62.5135 40.4533 63.6869 40.72C64.1135 40.8267 64.4869 40.88 64.8069 40.88C66.1402 40.88 66.8069 39.92 66.8069 38V15.12C66.8069 14.2667 67.1269 13.5467 67.7669 12.96C68.4602 12.32 69.3402 12 70.4069 12C71.4735 12 72.3002 12.32 72.8869 12.96C73.5269 13.5467 73.8469 14.2933 73.8469 15.2V38.16C73.8469 40.9333 73.0469 43.2 71.4469 44.96C69.9002 46.72 67.8202 47.6 65.2069 47.6ZM70.3269 8.4C69.2069 8.4 68.2469 8.05333 67.4469 7.36C66.6469 6.61333 66.2469 5.68 66.2469 4.56C66.2469 3.54666 66.6469 2.66666 67.4469 1.92C68.2469 1.17333 69.2069 0.799998 70.3269 0.799998C71.3935 0.799998 72.3002 1.17333 73.0469 1.92C73.8469 2.66666 74.2469 3.54666 74.2469 4.56C74.2469 5.68 73.8469 6.61333 73.0469 7.36C72.3002 8.05333 71.3935 8.4 70.3269 8.4ZM87.5113 36.8C83.8846 36.8 80.8179 35.7333 78.3112 33.6C75.8579 31.4133 74.6313 28.4267 74.6313 24.64C74.6313 20.6933 75.8313 17.6 78.2313 15.36C80.6846 13.12 83.7513 12 87.4313 12C90.0446 12 92.2046 12.48 93.9113 13.44C95.6179 14.4 96.8979 15.6267 97.7513 17.12C98.6046 18.6133 99.0313 20.1867 99.0313 21.84C99.0313 24.6133 97.8046 26 95.3513 26H82.0713C81.6446 26 81.4313 26.2667 81.4313 26.8C81.4313 28.0267 82.0979 29.0133 83.4313 29.76C84.8179 30.4533 86.3646 30.8 88.0713 30.8C89.1379 30.8 90.2046 30.6667 91.2713 30.4C92.3379 30.08 93.2713 29.6267 94.0713 29.04C94.6046 28.6667 95.1646 28.48 95.7513 28.48C96.5513 28.48 97.2179 28.7733 97.7513 29.36C98.3379 29.9467 98.6313 30.64 98.6313 31.44C98.6313 32.4 98.1246 33.3067 97.1113 34.16C96.1513 34.96 94.7379 35.6 92.8713 36.08C91.0579 36.56 89.2713 36.8 87.5113 36.8ZM91.6713 21.36C91.7779 21.36 91.9113 21.3333 92.0713 21.28C92.2846 21.2267 92.3913 21.04 92.3913 20.72C92.3913 19.92 91.8846 19.2 90.8713 18.56C89.9113 17.8667 88.6579 17.52 87.1113 17.52C85.4579 17.52 84.0979 17.8933 83.0312 18.64C82.0179 19.3333 81.5113 20.0533 81.5113 20.8C81.5113 21.1733 81.7246 21.36 82.1513 21.36H91.6713ZM111.711 36.8C109.471 36.8 107.364 36.2933 105.391 35.28C103.471 34.2667 101.924 32.8 100.751 30.88C99.5773 28.96 98.9906 26.6667 98.9906 24C99.044 20.32 100.244 17.4133 102.591 15.28C104.937 13.0933 107.977 12 111.711 12C113.151 12 114.564 12.16 115.951 12.48C117.337 12.8 118.537 13.3867 119.551 14.24C120.351 14.88 120.751 15.7067 120.751 16.72C120.751 17.5733 120.431 18.3467 119.791 19.04C119.204 19.7333 118.457 20.08 117.551 20.08C116.964 20.08 116.431 19.92 115.951 19.6C115.151 19.1733 114.431 18.88 113.791 18.72C113.204 18.56 112.537 18.48 111.791 18.48C110.031 18.48 108.591 18.9867 107.471 20C106.351 21.0133 105.791 22.3733 105.791 24.08C105.791 26.0533 106.404 27.6 107.631 28.72C108.857 29.7867 110.297 30.32 111.951 30.32C113.817 30.32 115.577 29.6267 117.231 28.24C117.871 27.76 118.484 27.52 119.071 27.52C119.924 27.52 120.644 27.8667 121.231 28.56C121.871 29.2533 122.191 30.0533 122.191 30.96C122.191 31.3333 122.111 31.76 121.951 32.24C121.791 32.6667 121.497 33.0933 121.071 33.52C119.631 34.6933 118.084 35.52 116.431 36C114.831 36.5333 113.257 36.8 111.711 36.8ZM132.606 36.8C130.313 36.8 128.42 36.1333 126.926 34.8C125.433 33.4667 124.686 31.4133 124.686 28.64V20C124.686 19.4667 124.42 19.2 123.886 19.2H122.686C121.726 19.2 121.006 18.9067 120.526 18.32C120.046 17.7333 119.806 16.9867 119.806 16.08C119.806 15.12 120.046 14.3467 120.526 13.76C121.006 13.12 121.726 12.8 122.686 12.8H123.886C124.42 12.8 124.686 12.5333 124.686 12V6.08C124.686 5.17333 125.006 4.4 125.646 3.76C126.286 3.12 127.113 2.8 128.126 2.8C129.14 2.8 129.966 3.12 130.606 3.76C131.3 4.34666 131.646 5.12 131.646 6.08V12C131.646 12.5333 131.913 12.8 132.446 12.8H135.406C136.313 12.8 137.06 13.12 137.646 13.76C138.286 14.4 138.606 15.1733 138.606 16.08C138.606 16.9867 138.286 17.7333 137.646 18.32C137.06 18.9067 136.286 19.2 135.326 19.2H132.446C131.913 19.2 131.646 19.4667 131.646 20V27.52C131.646 28.48 131.806 29.1467 132.126 29.52C132.5 29.8933 132.953 30.08 133.486 30.08C133.7 30.08 134.126 30.0267 134.766 29.92C135.406 29.76 135.806 29.68 135.966 29.68C136.82 29.68 137.54 30 138.126 30.64C138.713 31.28 139.006 32.0533 139.006 32.96C139.006 33.6533 138.793 34.2933 138.366 34.88C137.993 35.4667 137.38 35.8933 136.526 36.16C135.833 36.3733 135.166 36.5333 134.526 36.64C133.886 36.7467 133.246 36.8 132.606 36.8ZM147.317 36.8C143.69 36.8 140.704 36.0533 138.357 34.56C137.877 34.24 137.53 33.8667 137.317 33.44C137.104 32.96 136.997 32.5067 136.997 32.08C136.997 31.1733 137.29 30.3467 137.877 29.6C138.517 28.8533 139.29 28.48 140.197 28.48C140.624 28.48 141.05 28.5867 141.477 28.8C142.437 29.2267 143.53 29.6 144.757 29.92C145.984 30.1867 147.104 30.32 148.117 30.32C150.09 30.32 151.077 29.8667 151.077 28.96C151.077 28.4267 150.837 27.9733 150.357 27.6C149.877 27.1733 148.757 26.88 146.997 26.72C146.304 26.6667 145.397 26.56 144.277 26.4C143.21 26.24 142.144 25.9467 141.077 25.52C140.01 25.04 139.104 24.3467 138.357 23.44C137.664 22.5333 137.317 21.3067 137.317 19.76C137.317 17.36 138.224 15.4667 140.037 14.08C141.85 12.6933 144.277 12 147.317 12C149.077 12 150.73 12.1867 152.277 12.56C153.877 12.9333 155.077 13.4933 155.877 14.24C156.624 14.9333 156.997 15.7333 156.997 16.64C156.997 17.44 156.704 18.16 156.117 18.8C155.53 19.44 154.784 19.76 153.877 19.76C153.397 19.76 152.944 19.6533 152.517 19.44C151.877 19.0133 151.05 18.6933 150.037 18.48C149.077 18.2667 148.09 18.16 147.077 18.16C145.05 18.16 144.037 18.5867 144.037 19.44C144.037 19.8133 144.224 20.16 144.597 20.48C145.024 20.7467 145.957 20.9867 147.397 21.2C148.304 21.3067 149.344 21.4667 150.517 21.68C151.69 21.84 152.81 22.16 153.877 22.64C154.997 23.0667 155.93 23.7867 156.677 24.8C157.424 25.8133 157.797 27.2 157.797 28.96C157.797 31.36 156.837 33.28 154.917 34.72C152.997 36.1067 150.464 36.8 147.317 36.8Z" fill="#F59E0B"/>
<path d="M163.56 38C162.28 38 161.187 37.6 160.28 36.8C159.427 36 159 35.04 159 33.92C159 32.7467 159.427 31.7333 160.28 30.88C161.187 30.0267 162.28 29.6 163.56 29.6C164.733 29.6 165.72 30.0267 166.52 30.88C167.373 31.7333 167.8 32.7467 167.8 33.92C167.8 35.04 167.373 36 166.52 36.8C165.72 37.6 164.733 38 163.56 38Z" fill="#181670"/>
</svg>
