<svg width="24" height="24" viewBox="0 0 24 24" fill="none" xmlns="http://www.w3.org/2000/svg">
<path d="M1.59292 1.5066C2.00473 1.10699 2.5632 0.882507 3.1455 0.882507C3.72781 0.882507 4.28627 1.10699 4.69809 1.5066L12.4632 9.04384L20.2283 1.5066C20.6425 1.11832 21.1972 0.903469 21.773 0.908326C22.3488 0.913182 22.8996 1.13736 23.3068 1.53257C23.7139 1.92778 23.9449 2.4624 23.9499 3.02129C23.9549 3.58018 23.7335 4.11862 23.3335 4.52064L15.5684 12.0579L23.3335 19.5951C23.7335 19.9971 23.9549 20.5356 23.9499 21.0945C23.9449 21.6533 23.7139 22.188 23.3068 22.5832C22.8996 22.9784 22.3488 23.2026 21.773 23.2074C21.1972 23.2123 20.6425 22.9974 20.2283 22.6091L12.4632 15.0719L4.69809 22.6091C4.28391 22.9974 3.72919 23.2123 3.1534 23.2074C2.57762 23.2026 2.02683 22.9784 1.61967 22.5832C1.21251 22.188 0.981554 21.6533 0.97655 21.0945C0.971547 20.5356 1.19289 19.9971 1.59292 19.5951L9.35804 12.0579L1.59292 4.52064C1.18123 4.12091 0.949951 3.57884 0.949951 3.01362C0.949951 2.44841 1.18123 1.90633 1.59292 1.5066Z" fill="#181670"/>
</svg>
