<svg width="206" height="38" viewBox="0 0 206 38" fill="none" xmlns="http://www.w3.org/2000/svg">
<path d="M3.8 36.8C2.94667 36.8 2.12 36.48 1.32 35.84C0.573333 35.2 0.2 34.3733 0.2 33.36C0.2 32.9333 0.28 32.48 0.44 32L10.52 5.68C10.8933 4.72 11.5067 4 12.36 3.52C13.2133 3.04 14.0933 2.8 15 2.8C15.96 2.8 16.8667 3.04 17.72 3.52C18.6267 4 19.2667 4.72 19.64 5.68L30.44 31.84C30.5467 32.0533 30.6 32.2667 30.6 32.48C30.6 32.6933 30.6 32.9067 30.6 33.12C30.6 34.24 30.2267 35.12 29.48 35.76C28.7333 36.4 27.9067 36.72 27 36.72C26.36 36.72 25.72 36.5333 25.08 36.16C24.4933 35.84 24.0667 35.3067 23.8 34.56L21.48 28.32C21.4267 28 21.2133 27.84 20.84 27.84H10.04C9.66667 27.84 9.42667 28 9.32 28.32L7.08 34.64C6.70667 35.3333 6.22667 35.8667 5.64 36.24C5.05333 36.6133 4.44 36.8 3.8 36.8ZM12.92 21.6H17.64C17.96 21.6 18.2 21.4933 18.36 21.28C18.5733 21.0133 18.6267 20.6933 18.52 20.32L16.44 14.64C16.12 13.7867 15.72 13.36 15.24 13.36C14.76 13.36 14.36 13.8133 14.04 14.72L12.04 20.4C11.9333 20.72 11.96 21.0133 12.12 21.28C12.28 21.4933 12.5467 21.6 12.92 21.6ZM43.9725 36.8C41.5725 36.8 39.5458 36.0533 37.8925 34.56C37.4125 36.0533 36.3192 36.8 34.6125 36.8C33.5992 36.8 32.7458 36.5067 32.0525 35.92C31.3592 35.3333 31.0125 34.5867 31.0125 33.68V3.92C31.0125 3.06666 31.3325 2.34666 31.9725 1.76C32.6658 1.12 33.5458 0.799998 34.6125 0.799998C35.6258 0.799998 36.4525 1.12 37.0925 1.76C37.7325 2.34666 38.0525 3.09333 38.0525 4V14.48C39.8658 12.8267 41.9192 12 44.2125 12C47.7325 12 50.5325 13.12 52.6125 15.36C54.7458 17.5467 55.8125 20.5333 55.8125 24.32C55.8125 28.1067 54.7458 31.1467 52.6125 33.44C50.4792 35.68 47.5992 36.8 43.9725 36.8ZM43.4125 30.32C45.0658 30.32 46.3725 29.76 47.3325 28.64C48.3458 27.4667 48.8525 26.0267 48.8525 24.32C48.8525 22.56 48.3458 21.1467 47.3325 20.08C46.3725 19.0133 45.0658 18.48 43.4125 18.48C41.8125 18.48 40.5058 19.0133 39.4925 20.08C38.5325 21.1467 38.0525 22.56 38.0525 24.32C38.0525 26.0267 38.5325 27.4667 39.4925 28.64C40.5058 29.76 41.8125 30.32 43.4125 30.32ZM68.4431 36.8C66.1498 36.8 64.0431 36.2667 62.1231 35.2C60.2031 34.1333 58.6565 32.6667 57.4831 30.8C56.3631 28.88 55.8031 26.72 55.8031 24.32C55.8031 21.8667 56.3631 19.7333 57.4831 17.92C58.6565 16.0533 60.2031 14.6133 62.1231 13.6C64.0431 12.5333 66.1498 12 68.4431 12C70.7898 12 72.8965 12.5333 74.7631 13.6C76.6831 14.6133 78.2031 16.0533 79.3231 17.92C80.4431 19.7333 81.0031 21.8667 81.0031 24.32C81.0031 26.72 80.4431 28.88 79.3231 30.8C78.2031 32.6667 76.6831 34.1333 74.7631 35.2C72.8965 36.2667 70.7898 36.8 68.4431 36.8ZM68.4431 30.32C70.0965 30.32 71.4298 29.76 72.4431 28.64C73.5098 27.4667 74.0431 26.0267 74.0431 24.32C74.0431 22.56 73.5098 21.1467 72.4431 20.08C71.4298 19.0133 70.0965 18.48 68.4431 18.48C66.8431 18.48 65.4831 19.0133 64.3631 20.08C63.2965 21.1467 62.7631 22.56 62.7631 24.32C62.7631 26.0267 63.2965 27.4667 64.3631 28.64C65.4831 29.76 66.8431 30.32 68.4431 30.32ZM97.6006 15.44C97.6006 14.4267 97.9206 13.6 98.5606 12.96C99.254 12.32 100.107 12 101.121 12C102.134 12 102.961 12.3467 103.601 13.04C104.294 13.68 104.641 14.48 104.641 15.44V26.72C104.641 28.9067 104.081 30.7733 102.961 32.32C101.841 33.8133 100.401 34.9333 98.6406 35.68C96.8806 36.4267 95.014 36.8 93.0406 36.8C91.1206 36.8 89.2806 36.4267 87.5206 35.68C85.7606 34.9333 84.294 33.8133 83.1206 32.32C82.0006 30.7733 81.4406 28.9067 81.4406 26.72V15.44C81.4406 14.4267 81.7606 13.6 82.4006 12.96C83.094 12.32 83.9473 12 84.9606 12C85.974 12 86.8006 12.3467 87.4406 13.04C88.134 13.68 88.4806 14.48 88.4806 15.44V26.4C88.4806 27.52 88.9073 28.4533 89.7606 29.2C90.614 29.9467 91.7073 30.32 93.0406 30.32C94.374 30.32 95.4673 29.9467 96.3206 29.2C97.174 28.4533 97.6006 27.52 97.6006 26.4V15.44ZM116.669 36.8C114.375 36.8 112.482 36.1333 110.989 34.8C109.495 33.4667 108.749 31.4133 108.749 28.64V20C108.749 19.4667 108.482 19.2 107.949 19.2H106.749C105.789 19.2 105.069 18.9067 104.589 18.32C104.109 17.7333 103.869 16.9867 103.869 16.08C103.869 15.12 104.109 14.3467 104.589 13.76C105.069 13.12 105.789 12.8 106.749 12.8H107.949C108.482 12.8 108.749 12.5333 108.749 12V6.08C108.749 5.17333 109.069 4.4 109.709 3.76C110.349 3.12 111.175 2.8 112.189 2.8C113.202 2.8 114.029 3.12 114.669 3.76C115.362 4.34666 115.709 5.12 115.709 6.08V12C115.709 12.5333 115.975 12.8 116.509 12.8H119.469C120.375 12.8 121.122 13.12 121.709 13.76C122.349 14.4 122.669 15.1733 122.669 16.08C122.669 16.9867 122.349 17.7333 121.709 18.32C121.122 18.9067 120.349 19.2 119.389 19.2H116.509C115.975 19.2 115.709 19.4667 115.709 20V27.52C115.709 28.48 115.869 29.1467 116.189 29.52C116.562 29.8933 117.015 30.08 117.549 30.08C117.762 30.08 118.189 30.0267 118.829 29.92C119.469 29.76 119.869 29.68 120.029 29.68C120.882 29.68 121.602 30 122.189 30.64C122.775 31.28 123.069 32.0533 123.069 32.96C123.069 33.6533 122.855 34.2933 122.429 34.88C122.055 35.4667 121.442 35.8933 120.589 36.16C119.895 36.3733 119.229 36.5333 118.589 36.64C117.949 36.7467 117.309 36.8 116.669 36.8ZM137.795 36.8C136.728 36.8 135.822 36.4 135.075 35.6C134.382 34.8 134.115 33.8667 134.275 32.8L137.635 7.12C137.795 5.94666 138.275 5.01333 139.075 4.32C139.875 3.57333 140.835 3.2 141.955 3.2C144.248 3.2 145.742 4.18666 146.435 6.16L151.875 21.84C152.142 22.3733 152.408 22.64 152.675 22.64C153.048 22.64 153.315 22.3733 153.475 21.84L158.915 6.16C159.608 4.18666 161.075 3.2 163.315 3.2C164.542 3.2 165.528 3.57333 166.275 4.32C167.075 5.01333 167.555 5.94666 167.715 7.12L171.075 32.8C171.235 33.8667 170.942 34.8 170.195 35.6C169.502 36.4 168.622 36.8 167.555 36.8C166.595 36.8 165.768 36.5067 165.075 35.92C164.435 35.28 164.062 34.48 163.955 33.52L162.755 16.8C162.702 16.16 162.488 15.84 162.115 15.84C161.742 15.84 161.475 16.1067 161.315 16.64L156.675 29.68C155.928 31.6533 154.595 32.64 152.675 32.64C151.928 32.64 151.182 32.3733 150.435 31.84C149.742 31.3067 149.182 30.6133 148.755 29.76L144.115 16.8C143.955 16.32 143.688 16.08 143.315 16.08C142.995 16.08 142.782 16.4 142.675 17.04L141.395 33.52C141.342 34.48 140.968 35.28 140.275 35.92C139.582 36.5067 138.755 36.8 137.795 36.8ZM183.918 36.8C180.291 36.8 177.224 35.7333 174.717 33.6C172.264 31.4133 171.038 28.4267 171.038 24.64C171.038 20.6933 172.238 17.6 174.638 15.36C177.091 13.12 180.158 12 183.838 12C186.451 12 188.611 12.48 190.318 13.44C192.024 14.4 193.304 15.6267 194.158 17.12C195.011 18.6133 195.438 20.1867 195.438 21.84C195.438 24.6133 194.211 26 191.758 26H178.478C178.051 26 177.838 26.2667 177.838 26.8C177.838 28.0267 178.504 29.0133 179.838 29.76C181.224 30.4533 182.771 30.8 184.478 30.8C185.544 30.8 186.611 30.6667 187.678 30.4C188.744 30.08 189.678 29.6267 190.478 29.04C191.011 28.6667 191.571 28.48 192.158 28.48C192.958 28.48 193.624 28.7733 194.158 29.36C194.744 29.9467 195.038 30.64 195.038 31.44C195.038 32.4 194.531 33.3067 193.518 34.16C192.558 34.96 191.144 35.6 189.278 36.08C187.464 36.56 185.678 36.8 183.918 36.8ZM188.078 21.36C188.184 21.36 188.318 21.3333 188.478 21.28C188.691 21.2267 188.798 21.04 188.798 20.72C188.798 19.92 188.291 19.2 187.278 18.56C186.318 17.8667 185.064 17.52 183.518 17.52C181.864 17.52 180.504 17.8933 179.438 18.64C178.424 19.3333 177.918 20.0533 177.918 20.8C177.918 21.1733 178.131 21.36 178.558 21.36H188.078Z" fill="#F59E0B"/>
<path d="M201.576 38C200.296 38 199.202 37.6 198.296 36.8C197.442 36 197.016 35.04 197.016 33.92C197.016 32.7467 197.442 31.7333 198.296 30.88C199.202 30.0267 200.296 29.6 201.576 29.6C202.749 29.6 203.736 30.0267 204.536 30.88C205.389 31.7333 205.816 32.7467 205.816 33.92C205.816 35.04 205.389 36 204.536 36.8C203.736 37.6 202.749 38 201.576 38Z" fill="#181670"/>
</svg>
