<svg width="24" height="18" viewBox="0 0 24 18" fill="none" xmlns="http://www.w3.org/2000/svg">
<path d="M2.6 17.4C2.12 17.4 1.69333 17.24 1.32 16.92C0.973333 16.5733 0.8 16.1733 0.8 15.72V3.28C0.8 2.50667 1.02667 1.90667 1.48 1.48C1.93333 1.02667 2.53333 0.799999 3.28 0.799999H9.52C10.0533 0.799999 10.4667 0.946666 10.76 1.24C11.0533 1.53333 11.2 1.93333 11.2 2.44C11.2 2.89333 11.04 3.28 10.72 3.6C10.4 3.92 10 4.08 9.52 4.08H5.2C4.66667 4.08 4.4 4.34667 4.4 4.88V6.68C4.4 7.21333 4.66667 7.48 5.2 7.48H8.96C9.46667 7.48 9.86667 7.62667 10.16 7.92C10.48 8.21333 10.64 8.6 10.64 9.08C10.64 9.53333 10.4667 9.92 10.12 10.24C9.8 10.5333 9.41333 10.68 8.96 10.68H5.2C4.66667 10.68 4.4 10.9467 4.4 11.48V15.72C4.4 16.1733 4.21333 16.5733 3.84 16.92C3.49333 17.24 3.08 17.4 2.6 17.4Z" fill="#181670"/>
<path d="M11.2078 8.88C11.2078 6.26667 11.7011 4.24 12.6878 2.8C13.7011 1.33333 15.1945 0.599999 17.1678 0.599999C19.1678 0.599999 20.6745 1.33333 21.6878 2.8C22.7011 4.24 23.2078 6.25333 23.2078 8.84C23.2078 11.4267 22.7011 13.5067 21.6878 15.08C20.6745 16.6267 19.1678 17.4 17.1678 17.4C15.1945 17.4 13.7011 16.64 12.6878 15.12C11.7011 13.6 11.2078 11.52 11.2078 8.88ZM14.7278 8.88C14.7278 10.6133 14.9011 11.92 15.2478 12.8C15.6211 13.6533 16.2611 14.08 17.1678 14.08C18.1011 14.08 18.7545 13.6267 19.1278 12.72C19.5011 11.8133 19.6878 10.5067 19.6878 8.8C19.6878 7.09333 19.5011 5.86667 19.1278 5.12C18.7811 4.34667 18.1411 3.96 17.2078 3.96C16.3011 3.96 15.6611 4.34667 15.2878 5.12C14.9145 5.89333 14.7278 7.14667 14.7278 8.88Z" fill="#F59E0B"/>
</svg>
