<svg width="215" height="25" viewBox="0 0 215 25" fill="none" xmlns="http://www.w3.org/2000/svg">
<path d="M2.32 22.48C1.744 22.48 1.232 22.288 0.784 21.904C0.368 21.488 0.16 21.008 0.16 20.464V5.536C0.16 4.608 0.432 3.888 0.976 3.376C1.52 2.832 2.24 2.56 3.136 2.56H10.624C11.264 2.56 11.76 2.736 12.112 3.088C12.464 3.44 12.64 3.92 12.64 4.528C12.64 5.072 12.448 5.536 12.064 5.92C11.68 6.304 11.2 6.496 10.624 6.496H5.44C4.8 6.496 4.48 6.816 4.48 7.456V9.616C4.48 10.256 4.8 10.576 5.44 10.576H9.952C10.56 10.576 11.04 10.752 11.392 11.104C11.776 11.456 11.968 11.92 11.968 12.496C11.968 13.04 11.76 13.504 11.344 13.888C10.96 14.24 10.496 14.416 9.952 14.416H5.44C4.8 14.416 4.48 14.736 4.48 15.376V20.464C4.48 21.008 4.256 21.488 3.808 21.904C3.392 22.288 2.896 22.48 2.32 22.48ZM16.7519 22.336C16.1439 22.336 15.6319 22.16 15.2159 21.808C14.7999 21.456 14.5919 21.008 14.5919 20.464V9.712C14.5919 9.2 14.7839 8.768 15.1679 8.416C15.5839 8.032 16.1119 7.84 16.7519 7.84C17.3279 7.84 17.7919 8.016 18.1439 8.368C18.5279 8.688 18.7519 9.088 18.8159 9.568C19.1679 9.024 19.6479 8.56 20.2559 8.176C20.8639 7.792 21.5039 7.6 22.1759 7.6C22.5919 7.6 22.9919 7.648 23.3759 7.744C23.8239 7.872 24.1919 8.128 24.4799 8.512C24.7679 8.864 24.9119 9.28 24.9119 9.76C24.9119 10.432 24.6879 10.992 24.2399 11.44C23.8239 11.856 23.3279 12 22.7519 11.872C22.3359 11.776 21.9199 11.728 21.5039 11.728C20.7679 11.728 20.1599 11.984 19.6799 12.496C19.1999 13.008 18.9119 14.048 18.8159 15.616V20.416C18.8159 20.96 18.6079 21.424 18.1919 21.808C17.8079 22.16 17.3279 22.336 16.7519 22.336ZM32.8319 22.48C30.6879 22.48 28.9439 21.808 27.5999 20.464C26.2879 19.088 25.6319 17.264 25.6319 14.992C25.6319 12.72 26.2719 10.928 27.5519 9.616C28.8639 8.272 30.5759 7.6 32.6879 7.6C34.1919 7.6 35.5039 8.128 36.6239 9.184C36.7519 8.8 36.9919 8.48 37.3439 8.224C37.6959 7.968 38.1119 7.84 38.5919 7.84C39.2319 7.84 39.7439 8.032 40.1279 8.416C40.5439 8.768 40.7519 9.2 40.7519 9.712V20.608C40.7519 21.152 40.5439 21.6 40.1279 21.952C39.7439 22.304 39.2319 22.48 38.5919 22.48C37.5359 22.48 36.8799 22.016 36.6239 21.088C35.5999 22.016 34.3359 22.48 32.8319 22.48ZM33.1679 18.592C34.1919 18.592 35.0079 18.256 35.6159 17.584C36.2239 16.88 36.5279 16.016 36.5279 14.992C36.5279 13.936 36.2239 13.088 35.6159 12.448C35.0079 11.808 34.1919 11.488 33.1679 11.488C32.1759 11.488 31.3599 11.808 30.7199 12.448C30.1119 13.088 29.8079 13.936 29.8079 14.992C29.8079 16.016 30.1119 16.88 30.7199 17.584C31.3599 18.256 32.1759 18.592 33.1679 18.592ZM56.4055 22.48C55.7975 22.48 55.2855 22.304 54.8695 21.952C54.4855 21.6 54.2935 21.152 54.2935 20.608V14.752C54.2935 13.568 54.0215 12.72 53.4775 12.208C52.9655 11.696 52.3255 11.44 51.5575 11.44C50.7575 11.44 50.0855 11.696 49.5415 12.208C49.0295 12.72 48.7095 13.312 48.5815 13.984V20.416C48.5815 20.96 48.3735 21.424 47.9575 21.808C47.5735 22.16 47.0935 22.336 46.5175 22.336C45.9095 22.336 45.3975 22.16 44.9815 21.808C44.5655 21.456 44.3575 21.008 44.3575 20.464V9.712C44.3575 9.2 44.5495 8.768 44.9335 8.416C45.3495 8.032 45.8775 7.84 46.5175 7.84C47.0295 7.84 47.4615 7.984 47.8135 8.272C48.1655 8.528 48.4055 8.864 48.5335 9.28C49.3975 8.16 50.7095 7.6 52.4695 7.6C54.2615 7.6 55.7175 8.128 56.8375 9.184C57.9575 10.24 58.5175 11.92 58.5175 14.224V20.704C58.5175 21.216 58.3095 21.648 57.8935 22C57.5095 22.32 57.0135 22.48 56.4055 22.48ZM68.7951 22.48C67.4511 22.48 66.1871 22.176 65.0031 21.568C63.8511 20.96 62.9231 20.08 62.2191 18.928C61.5151 17.776 61.1631 16.4 61.1631 14.8C61.1951 12.592 61.9151 10.848 63.3231 9.568C64.7311 8.256 66.5551 7.6 68.7951 7.6C69.6591 7.6 70.5071 7.696 71.3391 7.888C72.1711 8.08 72.8911 8.432 73.4991 8.944C73.9791 9.328 74.2191 9.824 74.2191 10.432C74.2191 10.944 74.0271 11.408 73.6431 11.824C73.2911 12.24 72.8431 12.448 72.2991 12.448C71.9471 12.448 71.6271 12.352 71.3391 12.16C70.8591 11.904 70.4271 11.728 70.0431 11.632C69.6911 11.536 69.2911 11.488 68.8431 11.488C67.7871 11.488 66.9231 11.792 66.2511 12.4C65.5791 13.008 65.2431 13.824 65.2431 14.848C65.2431 16.032 65.6111 16.96 66.3471 17.632C67.0831 18.272 67.9471 18.592 68.9391 18.592C70.0591 18.592 71.1151 18.176 72.1071 17.344C72.4911 17.056 72.8591 16.912 73.2111 16.912C73.7231 16.912 74.1551 17.12 74.5071 17.536C74.8911 17.952 75.0831 18.432 75.0831 18.976C75.0831 19.2 75.0351 19.456 74.9391 19.744C74.8431 20 74.6671 20.256 74.4111 20.512C73.5471 21.216 72.6191 21.712 71.6271 22C70.6671 22.32 69.7231 22.48 68.7951 22.48ZM79.9405 22.48C79.3325 22.48 78.8205 22.304 78.4045 21.952C77.9885 21.6 77.7805 21.152 77.7805 20.608V9.712C77.7805 9.2 77.9725 8.768 78.3565 8.416C78.7725 8.032 79.3005 7.84 79.9405 7.84C80.5805 7.84 81.0765 8.032 81.4285 8.416C81.8125 8.768 82.0045 9.216 82.0045 9.76V20.56C82.0045 21.104 81.7965 21.568 81.3805 21.952C80.9965 22.304 80.5165 22.48 79.9405 22.48ZM79.9405 5.44C79.2685 5.44 78.6925 5.232 78.2125 4.816C77.7325 4.368 77.4925 3.808 77.4925 3.136C77.4925 2.528 77.7325 2 78.2125 1.552C78.6925 1.104 79.2685 0.879999 79.9405 0.879999C80.5805 0.879999 81.1245 1.104 81.5725 1.552C82.0525 2 82.2925 2.528 82.2925 3.136C82.2925 3.808 82.0525 4.368 81.5725 4.816C81.1245 5.232 80.5805 5.44 79.9405 5.44ZM90.8808 22.48C88.7048 22.48 86.9128 22.032 85.5048 21.136C85.2168 20.944 85.0088 20.72 84.8808 20.464C84.7528 20.176 84.6888 19.904 84.6888 19.648C84.6888 19.104 84.8648 18.608 85.2168 18.16C85.6008 17.712 86.0648 17.488 86.6088 17.488C86.8648 17.488 87.1208 17.552 87.3768 17.68C87.9528 17.936 88.6088 18.16 89.3448 18.352C90.0808 18.512 90.7528 18.592 91.3608 18.592C92.5448 18.592 93.1368 18.32 93.1368 17.776C93.1368 17.456 92.9928 17.184 92.7048 16.96C92.4168 16.704 91.7448 16.528 90.6888 16.432C90.2728 16.4 89.7288 16.336 89.0568 16.24C88.4168 16.144 87.7768 15.968 87.1367 15.712C86.4968 15.424 85.9528 15.008 85.5048 14.464C85.0888 13.92 84.8808 13.184 84.8808 12.256C84.8808 10.816 85.4248 9.68 86.5128 8.848C87.6008 8.016 89.0568 7.6 90.8808 7.6C91.9368 7.6 92.9288 7.712 93.8568 7.936C94.8168 8.16 95.5368 8.496 96.0168 8.944C96.4648 9.36 96.6888 9.84 96.6888 10.384C96.6888 10.864 96.5128 11.296 96.1608 11.68C95.8088 12.064 95.3608 12.256 94.8168 12.256C94.5288 12.256 94.2568 12.192 94.0008 12.064C93.6168 11.808 93.1208 11.616 92.5128 11.488C91.9368 11.36 91.3448 11.296 90.7368 11.296C89.5208 11.296 88.9128 11.552 88.9128 12.064C88.9128 12.288 89.0248 12.496 89.2488 12.688C89.5048 12.848 90.0648 12.992 90.9288 13.12C91.4728 13.184 92.0968 13.28 92.8008 13.408C93.5048 13.504 94.1768 13.696 94.8168 13.984C95.4888 14.24 96.0488 14.672 96.4968 15.28C96.9448 15.888 97.1688 16.72 97.1688 17.776C97.1688 19.216 96.5928 20.368 95.4408 21.232C94.2888 22.064 92.7688 22.48 90.8808 22.48ZM118.732 22.48C116.844 22.48 115.132 22.032 113.596 21.136C112.092 20.208 110.892 18.96 109.996 17.392C109.132 15.824 108.7 14.096 108.7 12.208C108.7 10.256 109.132 8.528 109.996 7.024C110.892 5.488 112.092 4.288 113.596 3.424C115.1 2.528 116.812 2.08 118.732 2.08C120.652 2.08 122.348 2.528 123.82 3.424C125.324 4.288 126.492 5.488 127.324 7.024C128.188 8.528 128.62 10.256 128.62 12.208C128.62 14.128 128.188 15.872 127.324 17.44C126.46 18.976 125.276 20.208 123.772 21.136C122.3 22.032 120.62 22.48 118.732 22.48ZM118.732 18.64C120.364 18.64 121.692 18.032 122.716 16.816C123.772 15.6 124.3 14.064 124.3 12.208C124.3 10.352 123.772 8.832 122.716 7.648C121.692 6.464 120.364 5.872 118.732 5.872C117.068 5.872 115.692 6.464 114.604 7.648C113.548 8.832 113.02 10.352 113.02 12.208C113.02 14.064 113.548 15.6 114.604 16.816C115.692 18.032 117.068 18.64 118.732 18.64ZM133.893 22.48C133.285 22.48 132.773 22.304 132.357 21.952C131.941 21.6 131.733 21.152 131.733 20.608V2.752C131.733 2.24 131.925 1.808 132.309 1.456C132.725 1.072 133.253 0.879999 133.893 0.879999C134.501 0.879999 134.997 1.072 135.381 1.456C135.765 1.808 135.957 2.256 135.957 2.8V11.056C135.957 11.44 136.069 11.632 136.293 11.632C136.357 11.632 136.485 11.568 136.677 11.44L141.333 7.984C141.717 7.728 142.133 7.6 142.581 7.6C143.125 7.6 143.573 7.792 143.924 8.176C144.277 8.56 144.453 9.008 144.453 9.52C144.453 10.224 144.133 10.784 143.493 11.2L139.701 13.696C139.381 13.92 139.221 14.16 139.221 14.416C139.221 14.672 139.349 14.88 139.605 15.04L143.973 18.976C144.261 19.2 144.453 19.456 144.549 19.744C144.645 20.032 144.693 20.304 144.693 20.56C144.693 21.072 144.485 21.52 144.069 21.904C143.685 22.288 143.221 22.48 142.677 22.48C142.133 22.48 141.653 22.272 141.237 21.856L136.533 17.248C136.437 17.152 136.325 17.104 136.197 17.104C136.037 17.104 135.957 17.232 135.957 17.488V20.56C135.957 21.104 135.749 21.568 135.333 21.952C134.949 22.304 134.469 22.48 133.893 22.48ZM153.732 22.48C152.356 22.48 151.092 22.16 149.94 21.52C148.788 20.88 147.86 20 147.156 18.88C146.484 17.728 146.148 16.432 146.148 14.992C146.148 13.52 146.484 12.24 147.156 11.152C147.86 10.032 148.788 9.168 149.94 8.56C151.092 7.92 152.356 7.6 153.732 7.6C155.14 7.6 156.404 7.92 157.523 8.56C158.676 9.168 159.588 10.032 160.26 11.152C160.932 12.24 161.268 13.52 161.268 14.992C161.268 16.432 160.932 17.728 160.26 18.88C159.588 20 158.676 20.88 157.523 21.52C156.404 22.16 155.14 22.48 153.732 22.48ZM153.732 18.592C154.724 18.592 155.524 18.256 156.132 17.584C156.772 16.88 157.092 16.016 157.092 14.992C157.092 13.936 156.772 13.088 156.132 12.448C155.524 11.808 154.724 11.488 153.732 11.488C152.772 11.488 151.956 11.808 151.284 12.448C150.644 13.088 150.324 13.936 150.324 14.992C150.324 16.016 150.644 16.88 151.284 17.584C151.956 18.256 152.772 18.592 153.732 18.592ZM166.33 22.336C165.722 22.336 165.21 22.16 164.794 21.808C164.378 21.456 164.17 21.008 164.17 20.464V9.712C164.17 9.2 164.362 8.768 164.746 8.416C165.162 8.032 165.69 7.84 166.33 7.84C166.906 7.84 167.37 8.016 167.722 8.368C168.106 8.688 168.33 9.088 168.394 9.568C168.746 9.024 169.226 8.56 169.834 8.176C170.442 7.792 171.082 7.6 171.754 7.6C172.17 7.6 172.57 7.648 172.954 7.744C173.402 7.872 173.77 8.128 174.058 8.512C174.346 8.864 174.49 9.28 174.49 9.76C174.49 10.432 174.266 10.992 173.818 11.44C173.402 11.856 172.906 12 172.33 11.872C171.914 11.776 171.498 11.728 171.082 11.728C170.346 11.728 169.738 11.984 169.258 12.496C168.778 13.008 168.49 14.048 168.394 15.616V20.416C168.394 20.96 168.186 21.424 167.77 21.808C167.386 22.16 166.906 22.336 166.33 22.336ZM178.847 22.48C178.239 22.48 177.727 22.304 177.311 21.952C176.895 21.6 176.687 21.152 176.687 20.608V9.712C176.687 9.2 176.879 8.768 177.263 8.416C177.679 8.032 178.207 7.84 178.847 7.84C179.487 7.84 179.983 8.032 180.335 8.416C180.719 8.768 180.911 9.216 180.911 9.76V20.56C180.911 21.104 180.703 21.568 180.287 21.952C179.903 22.304 179.423 22.48 178.847 22.48ZM178.847 5.44C178.175 5.44 177.599 5.232 177.119 4.816C176.639 4.368 176.399 3.808 176.399 3.136C176.399 2.528 176.639 2 177.119 1.552C177.599 1.104 178.175 0.879999 178.847 0.879999C179.487 0.879999 180.031 1.104 180.479 1.552C180.959 2 181.199 2.528 181.199 3.136C181.199 3.808 180.959 4.368 180.479 4.816C180.031 5.232 179.487 5.44 178.847 5.44ZM191.563 22.48C189.387 22.48 187.547 21.84 186.043 20.56C184.571 19.248 183.835 17.456 183.835 15.184C183.835 12.816 184.555 10.96 185.995 9.616C187.467 8.272 189.307 7.6 191.515 7.6C193.083 7.6 194.379 7.888 195.403 8.464C196.427 9.04 197.195 9.776 197.707 10.672C198.219 11.568 198.475 12.512 198.475 13.504C198.475 15.168 197.739 16 196.267 16H188.299C188.043 16 187.915 16.16 187.915 16.48C187.915 17.216 188.315 17.808 189.115 18.256C189.947 18.672 190.875 18.88 191.899 18.88C192.539 18.88 193.179 18.8 193.819 18.64C194.459 18.448 195.019 18.176 195.499 17.824C195.819 17.6 196.155 17.488 196.507 17.488C196.987 17.488 197.387 17.664 197.707 18.016C198.059 18.368 198.235 18.784 198.235 19.264C198.235 19.84 197.931 20.384 197.323 20.896C196.747 21.376 195.899 21.76 194.779 22.048C193.691 22.336 192.619 22.48 191.563 22.48ZM194.059 13.216C194.123 13.216 194.203 13.2 194.299 13.168C194.427 13.136 194.491 13.024 194.491 12.832C194.491 12.352 194.187 11.92 193.579 11.536C193.003 11.12 192.251 10.912 191.323 10.912C190.331 10.912 189.515 11.136 188.875 11.584C188.267 12 187.963 12.432 187.963 12.88C187.963 13.104 188.091 13.216 188.347 13.216H194.059Z" fill="#181670"/>
<path d="M209.694 24.4C208.158 24.4 206.846 23.92 205.758 22.96C204.734 22 204.222 20.848 204.222 19.504C204.222 18.096 204.734 16.88 205.758 15.856C206.846 14.832 208.158 14.32 209.694 14.32C211.102 14.32 212.286 14.832 213.246 15.856C214.27 16.88 214.782 18.096 214.782 19.504C214.782 20.848 214.27 22 213.246 22.96C212.286 23.92 211.102 24.4 209.694 24.4Z" fill="#F59E0B"/>
</svg>
