<svg width="381" height="34" viewBox="0 0 381 34" fill="none" xmlns="http://www.w3.org/2000/svg">
<path d="M15.52 31.7C12.7667 31.7 10.27 31.0467 8.03 29.74C5.79 28.4333 4.01667 26.66 2.71 24.42C1.40333 22.18 0.75 19.6367 0.75 16.79C0.75 13.9433 1.38 11.4233 2.64 9.23C3.94667 6.99 5.74333 5.21666 8.03 3.91C10.3167 2.60333 12.9067 1.95 15.8 1.95C17.8533 1.95 19.6967 2.20667 21.33 2.72C23.01 3.23333 24.55 4.05 25.95 5.17C26.6967 5.77667 27.07 6.57 27.07 7.55C27.07 8.34333 26.79 9.02 26.23 9.58C25.67 10.14 24.9933 10.42 24.2 10.42C23.6867 10.42 23.1033 10.21 22.45 9.79C21.4233 9.13667 20.3733 8.62333 19.3 8.25C18.2267 7.83 17.0833 7.62 15.87 7.62C13.3033 7.62 11.18 8.48333 9.5 10.21C7.86667 11.89 7.05 14.0833 7.05 16.79C7.05 19.59 7.84333 21.83 9.43 23.51C11.0167 25.19 13.0467 26.03 15.52 26.03C17.8067 26.03 19.6733 25.5867 21.12 24.7C22.6133 23.7667 23.36 22.5767 23.36 21.13C23.36 20.7567 23.1967 20.57 22.87 20.57H18.18C17.2933 20.57 16.57 20.3133 16.01 19.8C15.4967 19.2867 15.24 18.61 15.24 17.77C15.24 16.9767 15.4967 16.3233 16.01 15.81C16.57 15.2967 17.2933 15.04 18.18 15.04H25.88C27.14 15.04 28.05 15.3433 28.61 15.95C29.17 16.51 29.45 17.4667 29.45 18.82C29.45 22.74 28.1667 25.8667 25.6 28.2C23.08 30.5333 19.72 31.7 15.52 31.7ZM40.3673 31.7C37.1939 31.7 34.5106 30.7667 32.3173 28.9C30.1706 26.9867 29.0973 24.3733 29.0973 21.06C29.0973 17.6067 30.1473 14.9 32.2473 12.94C34.3939 10.98 37.0773 10 40.2973 10C42.5839 10 44.4739 10.42 45.9673 11.26C47.4606 12.1 48.5806 13.1733 49.3273 14.48C50.0739 15.7867 50.4473 17.1633 50.4473 18.61C50.4473 21.0367 49.3739 22.25 47.2273 22.25H35.6073C35.2339 22.25 35.0473 22.4833 35.0473 22.95C35.0473 24.0233 35.6306 24.8867 36.7973 25.54C38.0106 26.1467 39.3639 26.45 40.8573 26.45C41.7906 26.45 42.7239 26.3333 43.6573 26.1C44.5906 25.82 45.4073 25.4233 46.1073 24.91C46.5739 24.5833 47.0639 24.42 47.5773 24.42C48.2773 24.42 48.8606 24.6767 49.3273 25.19C49.8406 25.7033 50.0973 26.31 50.0973 27.01C50.0973 27.85 49.6539 28.6433 48.7673 29.39C47.9273 30.09 46.6906 30.65 45.0573 31.07C43.4706 31.49 41.9073 31.7 40.3673 31.7ZM44.0073 18.19C44.1006 18.19 44.2173 18.1667 44.3573 18.12C44.5439 18.0733 44.6373 17.91 44.6373 17.63C44.6373 16.93 44.1939 16.3 43.3073 15.74C42.4673 15.1333 41.3706 14.83 40.0173 14.83C38.5706 14.83 37.3806 15.1567 36.4473 15.81C35.5606 16.4167 35.1173 17.0467 35.1173 17.7C35.1173 18.0267 35.3039 18.19 35.6773 18.19H44.0073ZM59.8781 31.7C57.8715 31.7 56.2148 31.1167 54.9081 29.95C53.6015 28.7833 52.9481 26.9867 52.9481 24.56V17C52.9481 16.5333 52.7148 16.3 52.2481 16.3H51.1981C50.3581 16.3 49.7281 16.0433 49.3081 15.53C48.8881 15.0167 48.6781 14.3633 48.6781 13.57C48.6781 12.73 48.8881 12.0533 49.3081 11.54C49.7281 10.98 50.3581 10.7 51.1981 10.7H52.2481C52.7148 10.7 52.9481 10.4667 52.9481 10V4.82C52.9481 4.02666 53.2281 3.35 53.7881 2.79C54.3481 2.23 55.0715 1.95 55.9581 1.95C56.8448 1.95 57.5681 2.23 58.1281 2.79C58.7348 3.30333 59.0381 3.98 59.0381 4.82V10C59.0381 10.4667 59.2715 10.7 59.7381 10.7H62.3281C63.1215 10.7 63.7748 10.98 64.2881 11.54C64.8481 12.1 65.1281 12.7767 65.1281 13.57C65.1281 14.3633 64.8481 15.0167 64.2881 15.53C63.7748 16.0433 63.0981 16.3 62.2581 16.3H59.7381C59.2715 16.3 59.0381 16.5333 59.0381 17V23.58C59.0381 24.42 59.1781 25.0033 59.4581 25.33C59.7848 25.6567 60.1815 25.82 60.6481 25.82C60.8348 25.82 61.2081 25.7733 61.7681 25.68C62.3281 25.54 62.6781 25.47 62.8181 25.47C63.5648 25.47 64.1948 25.75 64.7081 26.31C65.2215 26.87 65.4781 27.5467 65.4781 28.34C65.4781 28.9467 65.2915 29.5067 64.9181 30.02C64.5915 30.5333 64.0548 30.9067 63.3081 31.14C62.7015 31.3267 62.1181 31.4667 61.5581 31.56C60.9981 31.6533 60.4381 31.7 59.8781 31.7ZM79.2036 31.7C78.3169 31.7 77.5703 31.4433 76.9636 30.93C76.3569 30.4167 76.0536 29.7633 76.0536 28.97V13.08C76.0536 12.3333 76.3336 11.7033 76.8936 11.19C77.5003 10.63 78.2703 10.35 79.2036 10.35C80.1369 10.35 80.8603 10.63 81.3736 11.19C81.9336 11.7033 82.2136 12.3567 82.2136 13.15V28.9C82.2136 29.6933 81.9103 30.37 81.3036 30.93C80.7436 31.4433 80.0436 31.7 79.2036 31.7ZM79.2036 6.85C78.2236 6.85 77.3836 6.54667 76.6836 5.94C75.9836 5.28667 75.6336 4.47 75.6336 3.49C75.6336 2.60333 75.9836 1.83333 76.6836 1.18C77.3836 0.526665 78.2236 0.199998 79.2036 0.199998C80.1369 0.199998 80.9303 0.526665 81.5836 1.18C82.2836 1.83333 82.6336 2.60333 82.6336 3.49C82.6336 4.47 82.2836 5.28667 81.5836 5.94C80.9303 6.54667 80.1369 6.85 79.2036 6.85ZM101.948 31.7C101.061 31.7 100.315 31.4433 99.7081 30.93C99.1481 30.4167 98.8681 29.7633 98.8681 28.97V20.43C98.8681 18.7033 98.4715 17.4667 97.6781 16.72C96.9315 15.9733 95.9981 15.6 94.8781 15.6C93.7115 15.6 92.7315 15.9733 91.9381 16.72C91.1915 17.4667 90.7248 18.33 90.5381 19.31V28.69C90.5381 29.4833 90.2348 30.16 89.6281 30.72C89.0681 31.2333 88.3681 31.49 87.5281 31.49C86.6415 31.49 85.8948 31.2333 85.2881 30.72C84.6815 30.2067 84.3781 29.5533 84.3781 28.76V13.08C84.3781 12.3333 84.6581 11.7033 85.2181 11.19C85.8248 10.63 86.5948 10.35 87.5281 10.35C88.2748 10.35 88.9048 10.56 89.4181 10.98C89.9315 11.3533 90.2815 11.8433 90.4681 12.45C91.7281 10.8167 93.6415 10 96.2081 10C98.8215 10 100.945 10.77 102.578 12.31C104.211 13.85 105.028 16.3 105.028 19.66V29.11C105.028 29.8567 104.725 30.4867 104.118 31C103.558 31.4667 102.835 31.7 101.948 31.7ZM126.05 31.7C124.043 31.7 122.387 31.1167 121.08 29.95C119.773 28.7833 119.12 26.9867 119.12 24.56V17C119.12 16.5333 118.887 16.3 118.42 16.3H117.37C116.53 16.3 115.9 16.0433 115.48 15.53C115.06 15.0167 114.85 14.3633 114.85 13.57C114.85 12.73 115.06 12.0533 115.48 11.54C115.9 10.98 116.53 10.7 117.37 10.7H118.42C118.887 10.7 119.12 10.4667 119.12 10V4.82C119.12 4.02666 119.4 3.35 119.96 2.79C120.52 2.23 121.243 1.95 122.13 1.95C123.017 1.95 123.74 2.23 124.3 2.79C124.907 3.30333 125.21 3.98 125.21 4.82V10C125.21 10.4667 125.443 10.7 125.91 10.7H128.5C129.293 10.7 129.947 10.98 130.46 11.54C131.02 12.1 131.3 12.7767 131.3 13.57C131.3 14.3633 131.02 15.0167 130.46 15.53C129.947 16.0433 129.27 16.3 128.43 16.3H125.91C125.443 16.3 125.21 16.5333 125.21 17V23.58C125.21 24.42 125.35 25.0033 125.63 25.33C125.957 25.6567 126.353 25.82 126.82 25.82C127.007 25.82 127.38 25.7733 127.94 25.68C128.5 25.54 128.85 25.47 128.99 25.47C129.737 25.47 130.367 25.75 130.88 26.31C131.393 26.87 131.65 27.5467 131.65 28.34C131.65 28.9467 131.463 29.5067 131.09 30.02C130.763 30.5333 130.227 30.9067 129.48 31.14C128.873 31.3267 128.29 31.4667 127.73 31.56C127.17 31.6533 126.61 31.7 126.05 31.7ZM141.302 31.7C139.295 31.7 137.452 31.2333 135.772 30.3C134.092 29.3667 132.738 28.0833 131.712 26.45C130.732 24.77 130.242 22.88 130.242 20.78C130.242 18.6333 130.732 16.7667 131.712 15.18C132.738 13.5467 134.092 12.2867 135.772 11.4C137.452 10.4667 139.295 10 141.302 10C143.355 10 145.198 10.4667 146.832 11.4C148.512 12.2867 149.842 13.5467 150.822 15.18C151.802 16.7667 152.292 18.6333 152.292 20.78C152.292 22.88 151.802 24.77 150.822 26.45C149.842 28.0833 148.512 29.3667 146.832 30.3C145.198 31.2333 143.355 31.7 141.302 31.7ZM141.302 26.03C142.748 26.03 143.915 25.54 144.802 24.56C145.735 23.5333 146.202 22.2733 146.202 20.78C146.202 19.24 145.735 18.0033 144.802 17.07C143.915 16.1367 142.748 15.67 141.302 15.67C139.902 15.67 138.712 16.1367 137.732 17.07C136.798 18.0033 136.332 19.24 136.332 20.78C136.332 22.2733 136.798 23.5333 137.732 24.56C138.712 25.54 139.902 26.03 141.302 26.03ZM166.815 13.01C166.815 12.1233 167.095 11.4 167.655 10.84C168.261 10.28 169.008 10 169.895 10C170.781 10 171.505 10.3033 172.065 10.91C172.671 11.47 172.975 12.17 172.975 13.01V22.88C172.975 24.7933 172.485 26.4267 171.505 27.78C170.525 29.0867 169.265 30.0667 167.725 30.72C166.185 31.3733 164.551 31.7 162.825 31.7C161.145 31.7 159.535 31.3733 157.995 30.72C156.455 30.0667 155.171 29.0867 154.145 27.78C153.165 26.4267 152.675 24.7933 152.675 22.88V13.01C152.675 12.1233 152.955 11.4 153.515 10.84C154.121 10.28 154.868 10 155.755 10C156.641 10 157.365 10.3033 157.925 10.91C158.531 11.47 158.835 12.17 158.835 13.01V22.6C158.835 23.58 159.208 24.3967 159.955 25.05C160.701 25.7033 161.658 26.03 162.825 26.03C163.991 26.03 164.948 25.7033 165.695 25.05C166.441 24.3967 166.815 23.58 166.815 22.6V13.01ZM184.479 31.7C182.519 31.7 180.676 31.2567 178.949 30.37C177.269 29.4833 175.916 28.2 174.889 26.52C173.863 24.84 173.349 22.8333 173.349 20.5C173.396 17.28 174.446 14.7367 176.499 12.87C178.553 10.9567 181.213 10 184.479 10C185.739 10 186.976 10.14 188.189 10.42C189.403 10.7 190.453 11.2133 191.339 11.96C192.039 12.52 192.389 13.2433 192.389 14.13C192.389 14.8767 192.109 15.5533 191.549 16.16C191.036 16.7667 190.383 17.07 189.589 17.07C189.076 17.07 188.609 16.93 188.189 16.65C187.489 16.2767 186.859 16.02 186.299 15.88C185.786 15.74 185.203 15.67 184.549 15.67C183.009 15.67 181.749 16.1133 180.769 17C179.789 17.8867 179.299 19.0767 179.299 20.57C179.299 22.2967 179.836 23.65 180.909 24.63C181.983 25.5633 183.243 26.03 184.689 26.03C186.323 26.03 187.863 25.4233 189.309 24.21C189.869 23.79 190.406 23.58 190.919 23.58C191.666 23.58 192.296 23.8833 192.809 24.49C193.369 25.0967 193.649 25.7967 193.649 26.59C193.649 26.9167 193.579 27.29 193.439 27.71C193.299 28.0833 193.043 28.4567 192.669 28.83C191.409 29.8567 190.056 30.58 188.609 31C187.209 31.4667 185.833 31.7 184.479 31.7ZM197.163 31.7C196.276 31.7 195.53 31.4433 194.923 30.93C194.316 30.4167 194.013 29.7633 194.013 28.97V2.93C194.013 2.18333 194.293 1.55333 194.853 1.04C195.46 0.479998 196.23 0.199998 197.163 0.199998C198.05 0.199998 198.773 0.479998 199.333 1.04C199.893 1.55333 200.173 2.20667 200.173 3V12.31C200.78 11.61 201.596 11.05 202.623 10.63C203.65 10.21 204.746 10 205.913 10C208.526 10 210.626 10.77 212.213 12.31C213.846 13.85 214.663 16.3 214.663 19.66V29.11C214.663 29.8567 214.36 30.4867 213.753 31C213.193 31.4667 212.47 31.7 211.583 31.7C210.696 31.7 209.95 31.4433 209.343 30.93C208.783 30.4167 208.503 29.7633 208.503 28.97V20.43C208.503 18.7033 208.106 17.4667 207.313 16.72C206.566 15.9733 205.633 15.6 204.513 15.6C203.346 15.6 202.39 15.9967 201.643 16.79C200.896 17.5367 200.406 18.3767 200.173 19.31V28.9C200.173 29.6933 199.87 30.37 199.263 30.93C198.703 31.4433 198.003 31.7 197.163 31.7ZM233.025 31.7C232.138 31.7 231.321 31.4433 230.575 30.93C229.875 30.4167 229.408 29.6467 229.175 28.62L224.975 13.92C224.928 13.7333 224.881 13.57 224.835 13.43C224.835 13.29 224.835 13.15 224.835 13.01C224.835 12.17 225.138 11.47 225.745 10.91C226.351 10.3033 227.098 10 227.985 10C229.525 10 230.458 10.7 230.785 12.1L232.955 22.39C233.095 22.9033 233.305 23.16 233.585 23.16C233.911 23.16 234.145 22.9267 234.285 22.46L237.295 13.57C237.575 12.7767 238.018 12.1933 238.625 11.82C239.231 11.4467 239.861 11.26 240.515 11.26C241.168 11.26 241.798 11.4467 242.405 11.82C243.058 12.1933 243.478 12.7767 243.665 13.57L246.605 22.46C246.745 22.9267 246.955 23.16 247.235 23.16C247.515 23.16 247.725 22.9033 247.865 22.39L250.035 12.1C250.361 10.7 251.295 10 252.835 10C253.721 10 254.468 10.3033 255.075 10.91C255.681 11.47 255.985 12.17 255.985 13.01C255.985 13.15 255.961 13.29 255.915 13.43C255.915 13.57 255.891 13.7333 255.845 13.92L251.645 28.62C251.365 29.6467 250.851 30.4167 250.105 30.93C249.405 31.4433 248.611 31.7 247.725 31.7C246.931 31.7 246.185 31.4667 245.485 31C244.785 30.4867 244.248 29.7167 243.875 28.69L241.075 20.43C240.935 19.9167 240.725 19.66 240.445 19.66C240.118 19.66 239.885 19.9167 239.745 20.43L236.945 28.69C236.618 29.7167 236.081 30.4867 235.335 31C234.635 31.4667 233.865 31.7 233.025 31.7ZM259.194 31.7C258.307 31.7 257.56 31.4433 256.954 30.93C256.347 30.4167 256.044 29.7633 256.044 28.97V13.08C256.044 12.3333 256.324 11.7033 256.884 11.19C257.49 10.63 258.26 10.35 259.194 10.35C260.127 10.35 260.85 10.63 261.364 11.19C261.924 11.7033 262.204 12.3567 262.204 13.15V28.9C262.204 29.6933 261.9 30.37 261.294 30.93C260.734 31.4433 260.034 31.7 259.194 31.7ZM259.194 6.85C258.214 6.85 257.374 6.54667 256.674 5.94C255.974 5.28667 255.624 4.47 255.624 3.49C255.624 2.60333 255.974 1.83333 256.674 1.18C257.374 0.526665 258.214 0.199998 259.194 0.199998C260.127 0.199998 260.92 0.526665 261.574 1.18C262.274 1.83333 262.624 2.60333 262.624 3.49C262.624 4.47 262.274 5.28667 261.574 5.94C260.92 6.54667 260.127 6.85 259.194 6.85ZM273.118 31.7C271.112 31.7 269.455 31.1167 268.148 29.95C266.842 28.7833 266.188 26.9867 266.188 24.56V17C266.188 16.5333 265.955 16.3 265.488 16.3H264.438C263.598 16.3 262.968 16.0433 262.548 15.53C262.128 15.0167 261.918 14.3633 261.918 13.57C261.918 12.73 262.128 12.0533 262.548 11.54C262.968 10.98 263.598 10.7 264.438 10.7H265.488C265.955 10.7 266.188 10.4667 266.188 10V4.82C266.188 4.02666 266.468 3.35 267.028 2.79C267.588 2.23 268.312 1.95 269.198 1.95C270.085 1.95 270.808 2.23 271.368 2.79C271.975 3.30333 272.278 3.98 272.278 4.82V10C272.278 10.4667 272.512 10.7 272.978 10.7H275.568C276.362 10.7 277.015 10.98 277.528 11.54C278.088 12.1 278.368 12.7767 278.368 13.57C278.368 14.3633 278.088 15.0167 277.528 15.53C277.015 16.0433 276.338 16.3 275.498 16.3H272.978C272.512 16.3 272.278 16.5333 272.278 17V23.58C272.278 24.42 272.418 25.0033 272.698 25.33C273.025 25.6567 273.422 25.82 273.888 25.82C274.075 25.82 274.448 25.7733 275.008 25.68C275.568 25.54 275.918 25.47 276.058 25.47C276.805 25.47 277.435 25.75 277.948 26.31C278.462 26.87 278.718 27.5467 278.718 28.34C278.718 28.9467 278.532 29.5067 278.158 30.02C277.832 30.5333 277.295 30.9067 276.548 31.14C275.942 31.3267 275.358 31.4667 274.798 31.56C274.238 31.6533 273.678 31.7 273.118 31.7ZM281.86 31.7C280.973 31.7 280.227 31.4433 279.62 30.93C279.013 30.4167 278.71 29.7633 278.71 28.97V2.93C278.71 2.18333 278.99 1.55333 279.55 1.04C280.157 0.479998 280.927 0.199998 281.86 0.199998C282.747 0.199998 283.47 0.479998 284.03 1.04C284.59 1.55333 284.87 2.20667 284.87 3V12.31C285.477 11.61 286.293 11.05 287.32 10.63C288.347 10.21 289.443 10 290.61 10C293.223 10 295.323 10.77 296.91 12.31C298.543 13.85 299.36 16.3 299.36 19.66V29.11C299.36 29.8567 299.057 30.4867 298.45 31C297.89 31.4667 297.167 31.7 296.28 31.7C295.393 31.7 294.647 31.4433 294.04 30.93C293.48 30.4167 293.2 29.7633 293.2 28.97V20.43C293.2 18.7033 292.803 17.4667 292.01 16.72C291.263 15.9733 290.33 15.6 289.21 15.6C288.043 15.6 287.087 15.9967 286.34 16.79C285.593 17.5367 285.103 18.3767 284.87 19.31V28.9C284.87 29.6933 284.567 30.37 283.96 30.93C283.4 31.4433 282.7 31.7 281.86 31.7ZM314.782 31.7C313.895 31.7 313.149 31.4433 312.542 30.93C311.935 30.4167 311.632 29.7633 311.632 28.97V13.08C311.632 12.3333 311.912 11.7033 312.472 11.19C313.079 10.63 313.849 10.35 314.782 10.35C315.855 10.35 316.672 10.7233 317.232 11.47C317.465 11.75 317.605 12.03 317.652 12.31C318.212 11.61 318.959 11.05 319.892 10.63C320.825 10.21 321.875 10 323.042 10C326.215 10 328.502 11.05 329.902 13.15C330.742 12.1233 331.769 11.3533 332.982 10.84C334.195 10.28 335.455 10 336.762 10C339.375 10 341.429 10.77 342.922 12.31C344.462 13.85 345.232 16.3 345.232 19.66V29.11C345.232 29.8567 344.929 30.4867 344.322 31C343.762 31.4667 343.039 31.7 342.152 31.7C341.265 31.7 340.519 31.4433 339.912 30.93C339.352 30.4167 339.072 29.7633 339.072 28.97V20.43C339.072 18.7033 338.769 17.4667 338.162 16.72C337.555 15.9733 336.692 15.6 335.572 15.6C334.452 15.6 333.542 15.95 332.842 16.65C332.189 17.3033 331.745 18.0967 331.512 19.03V29.11C331.512 29.8567 331.209 30.4867 330.602 31C330.042 31.4667 329.319 31.7 328.432 31.7C327.545 31.7 326.799 31.4433 326.192 30.93C325.632 30.4167 325.352 29.7633 325.352 28.97V20.43C325.352 18.7033 325.049 17.4667 324.442 16.72C323.835 15.9733 322.972 15.6 321.852 15.6C320.779 15.6 319.892 15.95 319.192 16.65C318.492 17.3033 318.025 18.0733 317.792 18.96V28.9C317.792 29.6933 317.489 30.37 316.882 30.93C316.322 31.4433 315.622 31.7 314.782 31.7ZM356.83 31.7C353.657 31.7 350.973 30.7667 348.78 28.9C346.633 26.9867 345.56 24.3733 345.56 21.06C345.56 17.6067 346.61 14.9 348.71 12.94C350.857 10.98 353.54 10 356.76 10C359.047 10 360.937 10.42 362.43 11.26C363.923 12.1 365.043 13.1733 365.79 14.48C366.537 15.7867 366.91 17.1633 366.91 18.61C366.91 21.0367 365.837 22.25 363.69 22.25H352.07C351.697 22.25 351.51 22.4833 351.51 22.95C351.51 24.0233 352.093 24.8867 353.26 25.54C354.473 26.1467 355.827 26.45 357.32 26.45C358.253 26.45 359.187 26.3333 360.12 26.1C361.053 25.82 361.87 25.4233 362.57 24.91C363.037 24.5833 363.527 24.42 364.04 24.42C364.74 24.42 365.323 24.6767 365.79 25.19C366.303 25.7033 366.56 26.31 366.56 27.01C366.56 27.85 366.117 28.6433 365.23 29.39C364.39 30.09 363.153 30.65 361.52 31.07C359.933 31.49 358.37 31.7 356.83 31.7ZM360.47 18.19C360.563 18.19 360.68 18.1667 360.82 18.12C361.007 18.0733 361.1 17.91 361.1 17.63C361.1 16.93 360.657 16.3 359.77 15.74C358.93 15.1333 357.833 14.83 356.48 14.83C355.033 14.83 353.843 15.1567 352.91 15.81C352.023 16.4167 351.58 17.0467 351.58 17.7C351.58 18.0267 351.767 18.19 352.14 18.19H360.47Z" fill="#181670"/>
<path d="M375.063 33.4C373.527 33.4 372.215 32.92 371.127 31.96C370.103 31 369.591 29.848 369.591 28.504C369.591 27.096 370.103 25.88 371.127 24.856C372.215 23.832 373.527 23.32 375.063 23.32C376.471 23.32 377.655 23.832 378.615 24.856C379.639 25.88 380.151 27.096 380.151 28.504C380.151 29.848 379.639 31 378.615 31.96C377.655 32.92 376.471 33.4 375.063 33.4Z" fill="#F59E0B"/>
</svg>
