<svg xmlns="http://www.w3.org/2000/svg"  viewBox="0 0 48 48" width="48px" height="48px"><path fill="#c0e6ed" d="M45.5,20.5C39.5,15,34.285,9.461,28.559,3.445C27.364,2.19,26,0.5,24,0.5s-3.999,2.855-5,4	C13.409,10.89,8.948,13.322,5,18c-0.995,1.179-4.5,3.5-4.5,6c0,1.23,0.5,2,1.743,3.197c3.778,3.639,10.36,9.714,15.016,14.655	C18.492,43.16,21.5,47.5,24,47.5c2,0,4.207-2.531,5-3.5c4.5-5.5,9-8,13.824-13.423C43.865,29.407,47.5,27,47.5,24	C47.5,22,45.938,20.902,45.5,20.5z M24,30.5c-1.497-2.049-6.5-6.5-6.5-6.5c1.932-2.175,6.452-6.492,6.5-6.5	c0.052-0.009,4.731,3.922,6.5,6.5C27.869,25.867,26.18,28.123,24,30.5z"/><path fill="#4b7bb2" d="M45.5,20.5c-4.257-3.902-8.119-7.827-12.048-11.924c-0.399,0.683-1.858,1.971-2.357,2.482	C28.796,13.416,25.5,16,24,17.5c0.052-0.009,4.731,3.922,6.5,6.5c-2.631,1.867-4.32,4.123-6.5,6.5	c2.519,2.409,3.791,4.012,5.473,5.682c0.965,0.958,2.717,2.436,3.433,3.665c3.22-3.031,6.487-5.413,9.918-9.27	C43.865,29.407,47.5,27,47.5,24C47.5,22,45.938,20.902,45.5,20.5z"/><path fill="#1e4384" d="M29.473,36.182c-1.682-1.67-2.954-3.273-5.473-5.682c-4.232,4.232-5.357,6.227-9.052,8.966	c0.802,0.812,1.585,1.615,2.312,2.386C18.492,43.16,21.5,47.5,24,47.5c2,0,4.207-2.531,5-3.5c1.299-1.588,2.599-2.922,3.906-4.153	C32.191,38.618,30.438,37.14,29.473,36.182z"/><path fill="#010101" d="M45.997,20.27l-0.159-0.138C40.236,14.997,35.275,9.78,30.021,4.257l-1.447-1.526	C27.438,1.514,26.024,0,24,0c-1.94,0-3.709,2.152-4.879,3.577c-0.186,0.225-0.353,0.428-0.497,0.594	c-2.918,3.334-5.578,5.628-7.925,7.651c-2.152,1.855-4.185,3.607-6.081,5.855c-0.229,0.27-0.625,0.628-1.084,1.042	C2.043,20.064,0,21.906,0,24c0,1.463,0.639,2.346,1.896,3.557c0.931,0.897,2.032,1.942,3.232,3.081	c3.684,3.494,8.267,7.843,11.766,11.557c0.234,0.249,0.534,0.609,0.883,1.028C19.359,45.125,21.751,48,24,48	c1.962,0,4.013-2.003,5.387-3.684c2.366-2.892,4.699-4.916,7.169-7.059c2.145-1.861,4.361-3.785,6.642-6.348	c0.211-0.236,0.557-0.546,0.957-0.904C45.686,28.635,48,26.564,48,24C48,21.979,46.597,20.781,45.997,20.27z M5.817,29.913	c-1.198-1.137-2.298-2.18-3.228-3.076v0C1.356,25.649,1,25.013,1,24c0-1.649,1.852-3.319,3.204-4.538	c0.486-0.439,0.906-0.817,1.178-1.14c1.846-2.187,3.85-3.914,5.97-5.743c2.372-2.045,5.061-4.363,8.024-7.75	c0.151-0.173,0.325-0.384,0.518-0.618C20.88,3.01,22.532,1,24,1c1.59,0,2.787,1.282,3.844,2.414l1.453,1.533	c1.181,1.242,2.347,2.466,3.509,3.679c-0.383,0.466-1.063,1.115-1.512,1.543c-0.228,0.217-0.426,0.405-0.558,0.541	c-1.307,1.341-2.945,2.761-4.392,4.014c-1.099,0.952-2.048,1.773-2.698,2.424c-0.195,0.195-0.529,0.499-0.529,0.499l0.001,0	c-1.691,1.544-5.452,5.414-5.993,6.023c-0.183,0.207-0.164,0.522,0.042,0.706c0.047,0.042,4.472,3.987,6.169,6.088	c-1.378,1.393-2.43,2.546-3.354,3.563c-1.657,1.826-2.892,3.178-4.988,4.775C11.998,35.778,8.645,32.595,5.817,29.913z M24.022,18.157c0.989,0.826,4.175,3.611,5.781,5.733c-1.864,1.399-3.26,2.985-4.731,4.658c-0.341,0.388-0.687,0.781-1.044,1.177	c-1.521-1.839-4.72-4.768-5.821-5.762C19.943,22.072,23.061,19.063,24.022,18.157z M28.613,43.684C26.889,45.791,25.207,47,24,47	c-1.78,0-4.08-2.765-5.454-4.417c-0.365-0.438-0.679-0.815-0.923-1.074c-0.609-0.646-1.258-1.315-1.921-1.991	c2.114-1.626,3.417-3.052,5.022-4.821c0.907-0.999,1.94-2.132,3.283-3.491c1.288,1.252,2.267,2.307,3.125,3.237	c0.671,0.727,1.296,1.404,1.989,2.092c0.231,0.23,0.508,0.49,0.806,0.769c0.804,0.754,1.766,1.66,2.335,2.46	C31.043,40.928,29.835,42.19,28.613,43.684z M43.487,29.26c-0.423,0.379-0.789,0.706-1.037,0.984	c-2.237,2.515-4.43,4.418-6.55,6.258c-0.986,0.855-1.949,1.694-2.904,2.574c-0.636-0.856-1.585-1.751-2.386-2.502	c-0.289-0.271-0.559-0.524-0.784-0.749c-0.684-0.678-1.299-1.345-1.959-2.061c-0.87-0.943-1.863-2.013-3.176-3.289	c0.385-0.426,0.766-0.852,1.132-1.268c1.537-1.748,2.989-3.398,4.966-4.801c0.223-0.158,0.277-0.465,0.123-0.69	c-0.902-1.315-4.455-4.96-6.155-6.25c0.597-0.561,1.367-1.23,2.242-1.989c1.461-1.266,3.117-2.7,4.454-4.071	c0.125-0.129,0.313-0.308,0.53-0.515c0.606-0.577,1.137-1.1,1.514-1.546c3.785,3.94,7.551,7.751,11.664,11.522l0.186,0.162	C45.884,21.488,47,22.441,47,24C47,26.117,44.886,28.008,43.487,29.26z"/></svg>