<svg width="536" height="42" viewBox="0 0 536 42" fill="none" xmlns="http://www.w3.org/2000/svg">
<path d="M4.7 31C3.34667 31 2.25 30.58 1.41 29.74C0.57 28.9 0.15 27.8033 0.15 26.45V5.31C0.15 4.42333 0.453333 3.7 1.06 3.14C1.66667 2.58 2.43667 2.3 3.37 2.3C4.25667 2.3 4.98 2.58 5.54 3.14C6.14667 3.7 6.45 4.42333 6.45 5.31V23.16C6.45 24.56 7.15 25.26 8.55 25.26H14.78C15.62 25.26 16.2967 25.54 16.81 26.1C17.37 26.6133 17.65 27.29 17.65 28.13C17.65 28.97 17.37 29.67 16.81 30.23C16.2967 30.7433 15.62 31 14.78 31H4.7ZM26.8829 31.7C23.7096 31.7 21.0262 30.7667 18.8329 28.9C16.6862 26.9867 15.6129 24.3733 15.6129 21.06C15.6129 17.6067 16.6629 14.9 18.7629 12.94C20.9096 10.98 23.5929 10 26.8129 10C29.0996 10 30.9896 10.42 32.4829 11.26C33.9762 12.1 35.0962 13.1733 35.8429 14.48C36.5896 15.7867 36.9629 17.1633 36.9629 18.61C36.9629 21.0367 35.8896 22.25 33.7429 22.25H22.1229C21.7496 22.25 21.5629 22.4833 21.5629 22.95C21.5629 24.0233 22.1462 24.8867 23.3129 25.54C24.5262 26.1467 25.8796 26.45 27.3729 26.45C28.3062 26.45 29.2396 26.3333 30.1729 26.1C31.1062 25.82 31.9229 25.4233 32.6229 24.91C33.0896 24.5833 33.5796 24.42 34.0929 24.42C34.7929 24.42 35.3762 24.6767 35.8429 25.19C36.3562 25.7033 36.6129 26.31 36.6129 27.01C36.6129 27.85 36.1696 28.6433 35.2829 29.39C34.4429 30.09 33.2062 30.65 31.5729 31.07C29.9862 31.49 28.4229 31.7 26.8829 31.7ZM30.5229 18.19C30.6162 18.19 30.7329 18.1667 30.8729 18.12C31.0596 18.0733 31.1529 17.91 31.1529 17.63C31.1529 16.93 30.7096 16.3 29.8229 15.74C28.9829 15.1333 27.8862 14.83 26.5329 14.83C25.0862 14.83 23.8962 15.1567 22.9629 15.81C22.0762 16.4167 21.6329 17.0467 21.6329 17.7C21.6329 18.0267 21.8196 18.19 22.1929 18.19H30.5229ZM46.3938 31.7C44.3871 31.7 42.7304 31.1167 41.4238 29.95C40.1171 28.7833 39.4637 26.9867 39.4637 24.56V17C39.4637 16.5333 39.2304 16.3 38.7638 16.3H37.7138C36.8738 16.3 36.2438 16.0433 35.8238 15.53C35.4038 15.0167 35.1938 14.3633 35.1938 13.57C35.1938 12.73 35.4038 12.0533 35.8238 11.54C36.2438 10.98 36.8738 10.7 37.7138 10.7H38.7638C39.2304 10.7 39.4637 10.4667 39.4637 10V4.82C39.4637 4.02666 39.7438 3.35 40.3038 2.79C40.8638 2.23 41.5871 1.95 42.4738 1.95C43.3604 1.95 44.0838 2.23 44.6438 2.79C45.2504 3.30333 45.5538 3.98 45.5538 4.82V10C45.5538 10.4667 45.7871 10.7 46.2538 10.7H48.8438C49.6371 10.7 50.2904 10.98 50.8038 11.54C51.3638 12.1 51.6438 12.7767 51.6438 13.57C51.6438 14.3633 51.3638 15.0167 50.8038 15.53C50.2904 16.0433 49.6138 16.3 48.7738 16.3H46.2538C45.7871 16.3 45.5538 16.5333 45.5538 17V23.58C45.5538 24.42 45.6938 25.0033 45.9738 25.33C46.3004 25.6567 46.6971 25.82 47.1638 25.82C47.3504 25.82 47.7238 25.7733 48.2838 25.68C48.8438 25.54 49.1938 25.47 49.3338 25.47C50.0804 25.47 50.7104 25.75 51.2238 26.31C51.7371 26.87 51.9938 27.5467 51.9938 28.34C51.9938 28.9467 51.8071 29.5067 51.4338 30.02C51.1071 30.5333 50.5704 30.9067 49.8238 31.14C49.2171 31.3267 48.6338 31.4667 48.0738 31.56C47.5138 31.6533 46.9538 31.7 46.3938 31.7ZM59.2655 31.7C56.0922 31.7 53.4789 31.0467 51.4255 29.74C51.0055 29.46 50.7022 29.1333 50.5155 28.76C50.3289 28.34 50.2355 27.9433 50.2355 27.57C50.2355 26.7767 50.4922 26.0533 51.0055 25.4C51.5655 24.7467 52.2422 24.42 53.0355 24.42C53.4089 24.42 53.7822 24.5133 54.1555 24.7C54.9955 25.0733 55.9522 25.4 57.0255 25.68C58.0989 25.9133 59.0789 26.03 59.9655 26.03C61.6922 26.03 62.5555 25.6333 62.5555 24.84C62.5555 24.3733 62.3455 23.9767 61.9255 23.65C61.5055 23.2767 60.5255 23.02 58.9855 22.88C58.3789 22.8333 57.5855 22.74 56.6055 22.6C55.6722 22.46 54.7389 22.2033 53.8055 21.83C52.8722 21.41 52.0789 20.8033 51.4255 20.01C50.8189 19.2167 50.5155 18.1433 50.5155 16.79C50.5155 14.69 51.3089 13.0333 52.8955 11.82C54.4822 10.6067 56.6055 10 59.2655 10C60.8055 10 62.2522 10.1633 63.6055 10.49C65.0055 10.8167 66.0555 11.3067 66.7555 11.96C67.4089 12.5667 67.7355 13.2667 67.7355 14.06C67.7355 14.76 67.4789 15.39 66.9655 15.95C66.4522 16.51 65.7989 16.79 65.0055 16.79C64.5855 16.79 64.1889 16.6967 63.8155 16.51C63.2555 16.1367 62.5322 15.8567 61.6455 15.67C60.8055 15.4833 59.9422 15.39 59.0555 15.39C57.2822 15.39 56.3955 15.7633 56.3955 16.51C56.3955 16.8367 56.5589 17.14 56.8855 17.42C57.2589 17.6533 58.0755 17.8633 59.3355 18.05C60.1289 18.1433 61.0389 18.2833 62.0655 18.47C63.0922 18.61 64.0722 18.89 65.0055 19.31C65.9855 19.6833 66.8022 20.3133 67.4555 21.2C68.1089 22.0867 68.4355 23.3 68.4355 24.84C68.4355 26.94 67.5955 28.62 65.9155 29.88C64.2355 31.0933 62.0189 31.7 59.2655 31.7ZM90.642 31.7C88.542 31.7 86.7686 31.0467 85.322 29.74C84.902 31.0467 83.9453 31.7 82.452 31.7C81.5653 31.7 80.8186 31.4433 80.212 30.93C79.6053 30.4167 79.302 29.7633 79.302 28.97V2.93C79.302 2.18333 79.582 1.55333 80.142 1.04C80.7486 0.479998 81.5186 0.199998 82.452 0.199998C83.3386 0.199998 84.062 0.479998 84.622 1.04C85.182 1.55333 85.462 2.20667 85.462 3V12.17C87.0486 10.7233 88.8453 10 90.852 10C93.932 10 96.382 10.98 98.202 12.94C100.069 14.8533 101.002 17.4667 101.002 20.78C101.002 24.0933 100.069 26.7533 98.202 28.76C96.3353 30.72 93.8153 31.7 90.642 31.7ZM90.152 26.03C91.5986 26.03 92.742 25.54 93.582 24.56C94.4686 23.5333 94.912 22.2733 94.912 20.78C94.912 19.24 94.4686 18.0033 93.582 17.07C92.742 16.1367 91.5986 15.67 90.152 15.67C88.752 15.67 87.6086 16.1367 86.722 17.07C85.882 18.0033 85.462 19.24 85.462 20.78C85.462 22.2733 85.882 23.5333 86.722 24.56C87.6086 25.54 88.752 26.03 90.152 26.03ZM115.5 13.01C115.5 12.1233 115.78 11.4 116.34 10.84C116.947 10.28 117.693 10 118.58 10C119.467 10 120.19 10.3033 120.75 10.91C121.357 11.47 121.66 12.17 121.66 13.01V22.88C121.66 24.7933 121.17 26.4267 120.19 27.78C119.21 29.0867 117.95 30.0667 116.41 30.72C114.87 31.3733 113.237 31.7 111.51 31.7C109.83 31.7 108.22 31.3733 106.68 30.72C105.14 30.0667 103.857 29.0867 102.83 27.78C101.85 26.4267 101.36 24.7933 101.36 22.88V13.01C101.36 12.1233 101.64 11.4 102.2 10.84C102.807 10.28 103.553 10 104.44 10C105.327 10 106.05 10.3033 106.61 10.91C107.217 11.47 107.52 12.17 107.52 13.01V22.6C107.52 23.58 107.893 24.3967 108.64 25.05C109.387 25.7033 110.343 26.03 111.51 26.03C112.677 26.03 113.633 25.7033 114.38 25.05C115.127 24.3967 115.5 23.58 115.5 22.6V13.01ZM126.655 31.7C125.768 31.7 125.021 31.4433 124.415 30.93C123.808 30.4167 123.505 29.7633 123.505 28.97V13.08C123.505 12.3333 123.785 11.7033 124.345 11.19C124.951 10.63 125.721 10.35 126.655 10.35C127.588 10.35 128.311 10.63 128.825 11.19C129.385 11.7033 129.665 12.3567 129.665 13.15V28.9C129.665 29.6933 129.361 30.37 128.755 30.93C128.195 31.4433 127.495 31.7 126.655 31.7ZM126.655 6.85C125.675 6.85 124.835 6.54667 124.135 5.94C123.435 5.28667 123.085 4.47 123.085 3.49C123.085 2.60333 123.435 1.83333 124.135 1.18C124.835 0.526665 125.675 0.199998 126.655 0.199998C127.588 0.199998 128.381 0.526665 129.035 1.18C129.735 1.83333 130.085 2.60333 130.085 3.49C130.085 4.47 129.735 5.28667 129.035 5.94C128.381 6.54667 127.588 6.85 126.655 6.85ZM135.049 31.7C134.163 31.7 133.416 31.4433 132.809 30.93C132.203 30.4167 131.899 29.7633 131.899 28.97V2.93C131.899 2.18333 132.179 1.55333 132.739 1.04C133.346 0.479998 134.116 0.199998 135.049 0.199998C135.936 0.199998 136.659 0.479998 137.219 1.04C137.779 1.55333 138.059 2.20667 138.059 3V28.9C138.059 29.6933 137.756 30.37 137.149 30.93C136.589 31.4433 135.889 31.7 135.049 31.7ZM149.184 31.7C146.057 31.7 143.537 30.72 141.624 28.76C139.757 26.7533 138.824 24.0933 138.824 20.78C138.824 17.4667 139.734 14.8533 141.554 12.94C143.42 10.98 145.894 10 148.974 10C150.98 10 152.777 10.7233 154.364 12.17V3C154.364 2.20667 154.644 1.55333 155.204 1.04C155.764 0.479998 156.487 0.199998 157.374 0.199998C158.307 0.199998 159.054 0.479998 159.614 1.04C160.22 1.55333 160.524 2.18333 160.524 2.93V28.97C160.524 29.7633 160.22 30.4167 159.614 30.93C159.054 31.4433 158.307 31.7 157.374 31.7C155.88 31.7 154.924 31.0467 154.504 29.74C153.057 31.0467 151.284 31.7 149.184 31.7ZM149.674 26.03C151.074 26.03 152.194 25.54 153.034 24.56C153.92 23.5333 154.364 22.2733 154.364 20.78C154.364 19.24 153.92 18.0033 153.034 17.07C152.194 16.1367 151.074 15.67 149.674 15.67C148.227 15.67 147.06 16.1367 146.174 17.07C145.334 18.0033 144.914 19.24 144.914 20.78C144.914 22.2733 145.334 23.5333 146.174 24.56C147.06 25.54 148.227 26.03 149.674 26.03ZM182.604 31.7C180.457 31.7 178.451 31.35 176.584 30.65C174.717 29.9033 173.247 28.9233 172.174 27.71C171.661 27.15 171.404 26.4967 171.404 25.75C171.404 24.9567 171.707 24.2567 172.314 23.65C172.921 23.0433 173.644 22.74 174.484 22.74C175.277 22.74 175.954 23.02 176.514 23.58C177.307 24.3267 178.311 24.91 179.524 25.33C180.737 25.75 181.927 25.96 183.094 25.96C184.307 25.96 185.357 25.7033 186.244 25.19C187.131 24.63 187.574 23.7667 187.574 22.6C187.574 21.62 187.154 20.8733 186.314 20.36C185.521 19.8 184.167 19.3567 182.254 19.03C178.847 18.47 176.281 17.5367 174.554 16.23C172.827 14.8767 171.964 12.9867 171.964 10.56C171.964 7.94667 172.967 5.87 174.974 4.33C176.981 2.74333 179.617 1.95 182.884 1.95C186.244 1.95 188.927 2.81333 190.934 4.54C191.727 5.19333 192.124 5.96333 192.124 6.85C192.124 7.59666 191.821 8.25 191.214 8.81C190.654 9.32333 189.977 9.58 189.184 9.58C188.577 9.58 188.017 9.41666 187.504 9.09C185.731 7.97 183.864 7.41 181.904 7.41C180.737 7.41 179.757 7.64333 178.964 8.11C178.171 8.57667 177.774 9.27667 177.774 10.21C177.774 11.19 178.381 11.96 179.594 12.52C180.854 13.08 182.674 13.5933 185.054 14.06C186.361 14.2933 187.644 14.7133 188.904 15.32C190.211 15.88 191.284 16.7433 192.124 17.91C193.011 19.0767 193.454 20.6633 193.454 22.67C193.454 25.33 192.427 27.5 190.374 29.18C188.367 30.86 185.777 31.7 182.604 31.7ZM204.189 31.7C202.182 31.7 200.339 31.2333 198.659 30.3C196.979 29.3667 195.625 28.0833 194.599 26.45C193.619 24.77 193.129 22.88 193.129 20.78C193.129 18.6333 193.619 16.7667 194.599 15.18C195.625 13.5467 196.979 12.2867 198.659 11.4C200.339 10.4667 202.182 10 204.189 10C206.242 10 208.085 10.4667 209.719 11.4C211.399 12.2867 212.729 13.5467 213.709 15.18C214.689 16.7667 215.179 18.6333 215.179 20.78C215.179 22.88 214.689 24.77 213.709 26.45C212.729 28.0833 211.399 29.3667 209.719 30.3C208.085 31.2333 206.242 31.7 204.189 31.7ZM204.189 26.03C205.635 26.03 206.802 25.54 207.689 24.56C208.622 23.5333 209.089 22.2733 209.089 20.78C209.089 19.24 208.622 18.0033 207.689 17.07C206.802 16.1367 205.635 15.67 204.189 15.67C202.789 15.67 201.599 16.1367 200.619 17.07C199.685 18.0033 199.219 19.24 199.219 20.78C199.219 22.2733 199.685 23.5333 200.619 24.56C201.599 25.54 202.789 26.03 204.189 26.03ZM219.061 31.7C218.175 31.7 217.428 31.4433 216.821 30.93C216.215 30.4167 215.911 29.7633 215.911 28.97V13.08C215.911 12.3333 216.191 11.7033 216.751 11.19C217.358 10.63 218.128 10.35 219.061 10.35C220.135 10.35 220.951 10.7233 221.511 11.47C221.745 11.75 221.885 12.03 221.931 12.31C222.491 11.61 223.238 11.05 224.171 10.63C225.105 10.21 226.155 10 227.321 10C230.495 10 232.781 11.05 234.181 13.15C235.021 12.1233 236.048 11.3533 237.261 10.84C238.475 10.28 239.735 10 241.041 10C243.655 10 245.708 10.77 247.201 12.31C248.741 13.85 249.511 16.3 249.511 19.66V29.11C249.511 29.8567 249.208 30.4867 248.601 31C248.041 31.4667 247.318 31.7 246.431 31.7C245.545 31.7 244.798 31.4433 244.191 30.93C243.631 30.4167 243.351 29.7633 243.351 28.97V20.43C243.351 18.7033 243.048 17.4667 242.441 16.72C241.835 15.9733 240.971 15.6 239.851 15.6C238.731 15.6 237.821 15.95 237.121 16.65C236.468 17.3033 236.025 18.0967 235.791 19.03V29.11C235.791 29.8567 235.488 30.4867 234.881 31C234.321 31.4667 233.598 31.7 232.711 31.7C231.825 31.7 231.078 31.4433 230.471 30.93C229.911 30.4167 229.631 29.7633 229.631 28.97V20.43C229.631 18.7033 229.328 17.4667 228.721 16.72C228.115 15.9733 227.251 15.6 226.131 15.6C225.058 15.6 224.171 15.95 223.471 16.65C222.771 17.3033 222.305 18.0733 222.071 18.96V28.9C222.071 29.6933 221.768 30.37 221.161 30.93C220.601 31.4433 219.901 31.7 219.061 31.7ZM261.109 31.7C257.936 31.7 255.253 30.7667 253.059 28.9C250.913 26.9867 249.839 24.3733 249.839 21.06C249.839 17.6067 250.889 14.9 252.989 12.94C255.136 10.98 257.819 10 261.039 10C263.326 10 265.216 10.42 266.709 11.26C268.203 12.1 269.323 13.1733 270.069 14.48C270.816 15.7867 271.189 17.1633 271.189 18.61C271.189 21.0367 270.116 22.25 267.969 22.25H256.349C255.976 22.25 255.789 22.4833 255.789 22.95C255.789 24.0233 256.373 24.8867 257.539 25.54C258.753 26.1467 260.106 26.45 261.599 26.45C262.533 26.45 263.466 26.3333 264.399 26.1C265.333 25.82 266.149 25.4233 266.849 24.91C267.316 24.5833 267.806 24.42 268.319 24.42C269.019 24.42 269.603 24.6767 270.069 25.19C270.583 25.7033 270.839 26.31 270.839 27.01C270.839 27.85 270.396 28.6433 269.509 29.39C268.669 30.09 267.433 30.65 265.799 31.07C264.213 31.49 262.649 31.7 261.109 31.7ZM264.749 18.19C264.843 18.19 264.959 18.1667 265.099 18.12C265.286 18.0733 265.379 17.91 265.379 17.63C265.379 16.93 264.936 16.3 264.049 15.74C263.209 15.1333 262.113 14.83 260.759 14.83C259.313 14.83 258.123 15.1567 257.189 15.81C256.303 16.4167 255.859 17.0467 255.859 17.7C255.859 18.0267 256.046 18.19 256.419 18.19H264.749ZM280.62 31.7C278.614 31.7 276.957 31.1167 275.65 29.95C274.344 28.7833 273.69 26.9867 273.69 24.56V17C273.69 16.5333 273.457 16.3 272.99 16.3H271.94C271.1 16.3 270.47 16.0433 270.05 15.53C269.63 15.0167 269.42 14.3633 269.42 13.57C269.42 12.73 269.63 12.0533 270.05 11.54C270.47 10.98 271.1 10.7 271.94 10.7H272.99C273.457 10.7 273.69 10.4667 273.69 10V4.82C273.69 4.02666 273.97 3.35 274.53 2.79C275.09 2.23 275.814 1.95 276.7 1.95C277.587 1.95 278.31 2.23 278.87 2.79C279.477 3.30333 279.78 3.98 279.78 4.82V10C279.78 10.4667 280.014 10.7 280.48 10.7H283.07C283.864 10.7 284.517 10.98 285.03 11.54C285.59 12.1 285.87 12.7767 285.87 13.57C285.87 14.3633 285.59 15.0167 285.03 15.53C284.517 16.0433 283.84 16.3 283 16.3H280.48C280.014 16.3 279.78 16.5333 279.78 17V23.58C279.78 24.42 279.92 25.0033 280.2 25.33C280.527 25.6567 280.924 25.82 281.39 25.82C281.577 25.82 281.95 25.7733 282.51 25.68C283.07 25.54 283.42 25.47 283.56 25.47C284.307 25.47 284.937 25.75 285.45 26.31C285.964 26.87 286.22 27.5467 286.22 28.34C286.22 28.9467 286.034 29.5067 285.66 30.02C285.334 30.5333 284.797 30.9067 284.05 31.14C283.444 31.3267 282.86 31.4667 282.3 31.56C281.74 31.6533 281.18 31.7 280.62 31.7ZM289.362 31.7C288.475 31.7 287.729 31.4433 287.122 30.93C286.515 30.4167 286.212 29.7633 286.212 28.97V2.93C286.212 2.18333 286.492 1.55333 287.052 1.04C287.659 0.479998 288.429 0.199998 289.362 0.199998C290.249 0.199998 290.972 0.479998 291.532 1.04C292.092 1.55333 292.372 2.20667 292.372 3V12.31C292.979 11.61 293.795 11.05 294.822 10.63C295.849 10.21 296.945 10 298.112 10C300.725 10 302.825 10.77 304.412 12.31C306.045 13.85 306.862 16.3 306.862 19.66V29.11C306.862 29.8567 306.559 30.4867 305.952 31C305.392 31.4667 304.669 31.7 303.782 31.7C302.895 31.7 302.149 31.4433 301.542 30.93C300.982 30.4167 300.702 29.7633 300.702 28.97V20.43C300.702 18.7033 300.305 17.4667 299.512 16.72C298.765 15.9733 297.832 15.6 296.712 15.6C295.545 15.6 294.589 15.9967 293.842 16.79C293.095 17.5367 292.605 18.3767 292.372 19.31V28.9C292.372 29.6933 292.069 30.37 291.462 30.93C290.902 31.4433 290.202 31.7 289.362 31.7ZM311.84 31.7C310.954 31.7 310.207 31.4433 309.6 30.93C308.994 30.4167 308.69 29.7633 308.69 28.97V13.08C308.69 12.3333 308.97 11.7033 309.53 11.19C310.137 10.63 310.907 10.35 311.84 10.35C312.774 10.35 313.497 10.63 314.01 11.19C314.57 11.7033 314.85 12.3567 314.85 13.15V28.9C314.85 29.6933 314.547 30.37 313.94 30.93C313.38 31.4433 312.68 31.7 311.84 31.7ZM311.84 6.85C310.86 6.85 310.02 6.54667 309.32 5.94C308.62 5.28667 308.27 4.47 308.27 3.49C308.27 2.60333 308.62 1.83333 309.32 1.18C310.02 0.526665 310.86 0.199998 311.84 0.199998C312.774 0.199998 313.567 0.526665 314.22 1.18C314.92 1.83333 315.27 2.60333 315.27 3.49C315.27 4.47 314.92 5.28667 314.22 5.94C313.567 6.54667 312.774 6.85 311.84 6.85ZM334.585 31.7C333.698 31.7 332.952 31.4433 332.345 30.93C331.785 30.4167 331.505 29.7633 331.505 28.97V20.43C331.505 18.7033 331.108 17.4667 330.315 16.72C329.568 15.9733 328.635 15.6 327.515 15.6C326.348 15.6 325.368 15.9733 324.575 16.72C323.828 17.4667 323.362 18.33 323.175 19.31V28.69C323.175 29.4833 322.872 30.16 322.265 30.72C321.705 31.2333 321.005 31.49 320.165 31.49C319.278 31.49 318.532 31.2333 317.925 30.72C317.318 30.2067 317.015 29.5533 317.015 28.76V13.08C317.015 12.3333 317.295 11.7033 317.855 11.19C318.462 10.63 319.232 10.35 320.165 10.35C320.912 10.35 321.542 10.56 322.055 10.98C322.568 11.3533 322.918 11.8433 323.105 12.45C324.365 10.8167 326.278 10 328.845 10C331.458 10 333.582 10.77 335.215 12.31C336.848 13.85 337.665 16.3 337.665 19.66V29.11C337.665 29.8567 337.362 30.4867 336.755 31C336.195 31.4667 335.472 31.7 334.585 31.7ZM348.243 41.15C346.936 41.15 345.676 41.01 344.463 40.73C343.25 40.4967 342.153 40.1233 341.173 39.61C340.053 39.0033 339.493 38.07 339.493 36.81C339.493 36.0167 339.773 35.3167 340.333 34.71C340.893 34.15 341.546 33.87 342.293 33.87C342.9 33.87 343.436 34.01 343.903 34.29C344.65 34.71 345.42 35.0133 346.213 35.2C347.053 35.3867 347.87 35.48 348.663 35.48C350.436 35.48 351.743 35.0833 352.583 34.29C353.47 33.4967 353.913 32.4467 353.913 31.14V29.53C352.42 30.9767 350.576 31.7 348.383 31.7C345.256 31.7 342.736 30.72 340.823 28.76C338.956 26.7533 338.023 24.0933 338.023 20.78C338.023 17.4667 338.933 14.8533 340.753 12.94C342.62 10.98 345.093 10 348.173 10C350.413 10 352.35 10.8633 353.983 12.59C354.123 11.9367 354.45 11.4 354.963 10.98C355.523 10.56 356.2 10.35 356.993 10.35C357.926 10.35 358.673 10.63 359.233 11.19C359.793 11.75 360.073 12.45 360.073 13.29V31.28C360.073 34.2667 359.023 36.6467 356.923 38.42C354.87 40.24 351.976 41.15 348.243 41.15ZM348.873 26.03C350.273 26.03 351.393 25.54 352.233 24.56C353.12 23.5333 353.563 22.2733 353.563 20.78C353.563 19.24 353.12 18.0033 352.233 17.07C351.393 16.1367 350.273 15.67 348.873 15.67C347.426 15.67 346.26 16.1367 345.373 17.07C344.533 18.0033 344.113 19.24 344.113 20.78C344.113 22.2733 344.533 23.5333 345.373 24.56C346.26 25.54 347.426 26.03 348.873 26.03ZM381.453 31.7C380.566 31.7 379.82 31.4433 379.213 30.93C378.606 30.37 378.303 29.6467 378.303 28.76V10.49C378.303 9.09 377.603 8.39 376.203 8.39H372.773C371.933 8.39 371.233 8.13333 370.673 7.62C370.16 7.06 369.903 6.36 369.903 5.52C369.903 4.68 370.16 4.00333 370.673 3.49C371.233 2.93 371.933 2.65 372.773 2.65H390.063C390.95 2.65 391.65 2.93 392.163 3.49C392.723 4.00333 393.003 4.68 393.003 5.52C393.003 6.36 392.723 7.06 392.163 7.62C391.65 8.13333 390.95 8.39 390.063 8.39H386.703C385.303 8.39 384.603 9.09 384.603 10.49V28.76C384.603 29.6467 384.3 30.37 383.693 30.93C383.133 31.4433 382.386 31.7 381.453 31.7ZM400.858 31.7C398.852 31.7 397.008 31.2333 395.328 30.3C393.648 29.3667 392.295 28.0833 391.268 26.45C390.288 24.77 389.798 22.88 389.798 20.78C389.798 18.6333 390.288 16.7667 391.268 15.18C392.295 13.5467 393.648 12.2867 395.328 11.4C397.008 10.4667 398.852 10 400.858 10C402.912 10 404.755 10.4667 406.388 11.4C408.068 12.2867 409.398 13.5467 410.378 15.18C411.358 16.7667 411.848 18.6333 411.848 20.78C411.848 22.88 411.358 24.77 410.378 26.45C409.398 28.0833 408.068 29.3667 406.388 30.3C404.755 31.2333 402.912 31.7 400.858 31.7ZM400.858 26.03C402.305 26.03 403.472 25.54 404.358 24.56C405.292 23.5333 405.758 22.2733 405.758 20.78C405.758 19.24 405.292 18.0033 404.358 17.07C403.472 16.1367 402.305 15.67 400.858 15.67C399.458 15.67 398.268 16.1367 397.288 17.07C396.355 18.0033 395.888 19.24 395.888 20.78C395.888 22.2733 396.355 23.5333 397.288 24.56C398.268 25.54 399.458 26.03 400.858 26.03ZM421.401 41.15C420.095 41.15 418.835 41.01 417.621 40.73C416.408 40.4967 415.311 40.1233 414.331 39.61C413.211 39.0033 412.651 38.07 412.651 36.81C412.651 36.0167 412.931 35.3167 413.491 34.71C414.051 34.15 414.705 33.87 415.451 33.87C416.058 33.87 416.595 34.01 417.061 34.29C417.808 34.71 418.578 35.0133 419.371 35.2C420.211 35.3867 421.028 35.48 421.821 35.48C423.595 35.48 424.901 35.0833 425.741 34.29C426.628 33.4967 427.071 32.4467 427.071 31.14V29.53C425.578 30.9767 423.735 31.7 421.541 31.7C418.415 31.7 415.895 30.72 413.981 28.76C412.115 26.7533 411.181 24.0933 411.181 20.78C411.181 17.4667 412.091 14.8533 413.911 12.94C415.778 10.98 418.251 10 421.331 10C423.571 10 425.508 10.8633 427.141 12.59C427.281 11.9367 427.608 11.4 428.121 10.98C428.681 10.56 429.358 10.35 430.151 10.35C431.085 10.35 431.831 10.63 432.391 11.19C432.951 11.75 433.231 12.45 433.231 13.29V31.28C433.231 34.2667 432.181 36.6467 430.081 38.42C428.028 40.24 425.135 41.15 421.401 41.15ZM422.031 26.03C423.431 26.03 424.551 25.54 425.391 24.56C426.278 23.5333 426.721 22.2733 426.721 20.78C426.721 19.24 426.278 18.0033 425.391 17.07C424.551 16.1367 423.431 15.67 422.031 15.67C420.585 15.67 419.418 16.1367 418.531 17.07C417.691 18.0033 417.271 19.24 417.271 20.78C417.271 22.2733 417.691 23.5333 418.531 24.56C419.418 25.54 420.585 26.03 422.031 26.03ZM444.518 31.7C441.344 31.7 438.661 30.7667 436.468 28.9C434.321 26.9867 433.248 24.3733 433.248 21.06C433.248 17.6067 434.298 14.9 436.398 12.94C438.544 10.98 441.228 10 444.448 10C446.734 10 448.624 10.42 450.118 11.26C451.611 12.1 452.731 13.1733 453.478 14.48C454.224 15.7867 454.598 17.1633 454.598 18.61C454.598 21.0367 453.524 22.25 451.378 22.25H439.758C439.384 22.25 439.198 22.4833 439.198 22.95C439.198 24.0233 439.781 24.8867 440.948 25.54C442.161 26.1467 443.514 26.45 445.008 26.45C445.941 26.45 446.874 26.3333 447.808 26.1C448.741 25.82 449.558 25.4233 450.258 24.91C450.724 24.5833 451.214 24.42 451.728 24.42C452.428 24.42 453.011 24.6767 453.478 25.19C453.991 25.7033 454.248 26.31 454.248 27.01C454.248 27.85 453.804 28.6433 452.918 29.39C452.078 30.09 450.841 30.65 449.208 31.07C447.621 31.49 446.058 31.7 444.518 31.7ZM448.158 18.19C448.251 18.19 448.368 18.1667 448.508 18.12C448.694 18.0733 448.788 17.91 448.788 17.63C448.788 16.93 448.344 16.3 447.458 15.74C446.618 15.1333 445.521 14.83 444.168 14.83C442.721 14.83 441.531 15.1567 440.598 15.81C439.711 16.4167 439.268 17.0467 439.268 17.7C439.268 18.0267 439.454 18.19 439.828 18.19H448.158ZM464.029 31.7C462.022 31.7 460.365 31.1167 459.059 29.95C457.752 28.7833 457.099 26.9867 457.099 24.56V17C457.099 16.5333 456.865 16.3 456.399 16.3H455.349C454.509 16.3 453.879 16.0433 453.459 15.53C453.039 15.0167 452.829 14.3633 452.829 13.57C452.829 12.73 453.039 12.0533 453.459 11.54C453.879 10.98 454.509 10.7 455.349 10.7H456.399C456.865 10.7 457.099 10.4667 457.099 10V4.82C457.099 4.02666 457.379 3.35 457.939 2.79C458.499 2.23 459.222 1.95 460.109 1.95C460.995 1.95 461.719 2.23 462.279 2.79C462.885 3.30333 463.189 3.98 463.189 4.82V10C463.189 10.4667 463.422 10.7 463.889 10.7H466.479C467.272 10.7 467.925 10.98 468.439 11.54C468.999 12.1 469.279 12.7767 469.279 13.57C469.279 14.3633 468.999 15.0167 468.439 15.53C467.925 16.0433 467.249 16.3 466.409 16.3H463.889C463.422 16.3 463.189 16.5333 463.189 17V23.58C463.189 24.42 463.329 25.0033 463.609 25.33C463.935 25.6567 464.332 25.82 464.799 25.82C464.985 25.82 465.359 25.7733 465.919 25.68C466.479 25.54 466.829 25.47 466.969 25.47C467.715 25.47 468.345 25.75 468.859 26.31C469.372 26.87 469.629 27.5467 469.629 28.34C469.629 28.9467 469.442 29.5067 469.069 30.02C468.742 30.5333 468.205 30.9067 467.459 31.14C466.852 31.3267 466.269 31.4667 465.709 31.56C465.149 31.6533 464.589 31.7 464.029 31.7ZM472.77 31.7C471.884 31.7 471.137 31.4433 470.53 30.93C469.924 30.4167 469.62 29.7633 469.62 28.97V2.93C469.62 2.18333 469.9 1.55333 470.46 1.04C471.067 0.479998 471.837 0.199998 472.77 0.199998C473.657 0.199998 474.38 0.479998 474.94 1.04C475.5 1.55333 475.78 2.20667 475.78 3V12.31C476.387 11.61 477.204 11.05 478.23 10.63C479.257 10.21 480.354 10 481.52 10C484.134 10 486.234 10.77 487.82 12.31C489.454 13.85 490.27 16.3 490.27 19.66V29.11C490.27 29.8567 489.967 30.4867 489.36 31C488.8 31.4667 488.077 31.7 487.19 31.7C486.304 31.7 485.557 31.4433 484.95 30.93C484.39 30.4167 484.11 29.7633 484.11 28.97V20.43C484.11 18.7033 483.714 17.4667 482.92 16.72C482.174 15.9733 481.24 15.6 480.12 15.6C478.954 15.6 477.997 15.9967 477.25 16.79C476.504 17.5367 476.014 18.3767 475.78 19.31V28.9C475.78 29.6933 475.477 30.37 474.87 30.93C474.31 31.4433 473.61 31.7 472.77 31.7ZM501.899 31.7C498.725 31.7 496.042 30.7667 493.849 28.9C491.702 26.9867 490.629 24.3733 490.629 21.06C490.629 17.6067 491.679 14.9 493.779 12.94C495.925 10.98 498.609 10 501.829 10C504.115 10 506.005 10.42 507.499 11.26C508.992 12.1 510.112 13.1733 510.859 14.48C511.605 15.7867 511.979 17.1633 511.979 18.61C511.979 21.0367 510.905 22.25 508.759 22.25H497.139C496.765 22.25 496.579 22.4833 496.579 22.95C496.579 24.0233 497.162 24.8867 498.329 25.54C499.542 26.1467 500.895 26.45 502.389 26.45C503.322 26.45 504.255 26.3333 505.189 26.1C506.122 25.82 506.939 25.4233 507.639 24.91C508.105 24.5833 508.595 24.42 509.109 24.42C509.809 24.42 510.392 24.6767 510.859 25.19C511.372 25.7033 511.629 26.31 511.629 27.01C511.629 27.85 511.185 28.6433 510.299 29.39C509.459 30.09 508.222 30.65 506.589 31.07C505.002 31.49 503.439 31.7 501.899 31.7ZM505.539 18.19C505.632 18.19 505.749 18.1667 505.889 18.12C506.075 18.0733 506.169 17.91 506.169 17.63C506.169 16.93 505.725 16.3 504.839 15.74C503.999 15.1333 502.902 14.83 501.549 14.83C500.102 14.83 498.912 15.1567 497.979 15.81C497.092 16.4167 496.649 17.0467 496.649 17.7C496.649 18.0267 496.835 18.19 497.209 18.19H505.539ZM515.809 31.49C514.923 31.49 514.176 31.2333 513.569 30.72C512.963 30.2067 512.659 29.5533 512.659 28.76V13.08C512.659 12.3333 512.939 11.7033 513.499 11.19C514.106 10.63 514.876 10.35 515.809 10.35C516.649 10.35 517.326 10.6067 517.839 11.12C518.399 11.5867 518.726 12.17 518.819 12.87C519.333 12.0767 520.033 11.4 520.919 10.84C521.806 10.28 522.739 10 523.719 10C524.326 10 524.909 10.07 525.469 10.21C526.123 10.3967 526.659 10.77 527.079 11.33C527.499 11.8433 527.709 12.45 527.709 13.15C527.709 14.13 527.383 14.9467 526.729 15.6C526.123 16.2067 525.399 16.4167 524.559 16.23C523.953 16.09 523.346 16.02 522.739 16.02C521.666 16.02 520.779 16.3933 520.079 17.14C519.379 17.8867 518.959 19.4033 518.819 21.69V28.69C518.819 29.4833 518.516 30.16 517.909 30.72C517.349 31.2333 516.649 31.49 515.809 31.49ZM532.033 32.75C530.913 32.75 529.956 32.4 529.163 31.7C528.416 31 528.043 30.16 528.043 29.18C528.043 28.1533 528.416 27.2667 529.163 26.52C529.956 25.7733 530.913 25.4 532.033 25.4C533.06 25.4 533.923 25.7733 534.623 26.52C535.37 27.2667 535.743 28.1533 535.743 29.18C535.743 30.16 535.37 31 534.623 31.7C533.923 32.4 533.06 32.75 532.033 32.75Z" fill="#181670"/>
</svg>
