<svg width="178" height="48" viewBox="0 0 178 48" fill="none" xmlns="http://www.w3.org/2000/svg">
<path d="M3.92 36.8C2.85333 36.8 1.94667 36.4 1.2 35.6C0.506667 34.8 0.24 33.8667 0.4 32.8L3.76 7.12C3.92 5.94666 4.4 5.01333 5.2 4.32C6 3.57333 6.96 3.2 8.08 3.2C10.3733 3.2 11.8667 4.18666 12.56 6.16L18 21.84C18.2667 22.3733 18.5333 22.64 18.8 22.64C19.1733 22.64 19.44 22.3733 19.6 21.84L25.04 6.16C25.7333 4.18666 27.2 3.2 29.44 3.2C30.6667 3.2 31.6533 3.57333 32.4 4.32C33.2 5.01333 33.68 5.94666 33.84 7.12L37.2 32.8C37.36 33.8667 37.0667 34.8 36.32 35.6C35.6267 36.4 34.7467 36.8 33.68 36.8C32.72 36.8 31.8933 36.5067 31.2 35.92C30.56 35.28 30.1867 34.48 30.08 33.52L28.88 16.8C28.8267 16.16 28.6133 15.84 28.24 15.84C27.8667 15.84 27.6 16.1067 27.44 16.64L22.8 29.68C22.0533 31.6533 20.72 32.64 18.8 32.64C18.0533 32.64 17.3067 32.3733 16.56 31.84C15.8667 31.3067 15.3067 30.6133 14.88 29.76L10.24 16.8C10.08 16.32 9.81333 16.08 9.44 16.08C9.12 16.08 8.90667 16.4 8.8 17.04L7.52 33.52C7.46667 34.48 7.09333 35.28 6.4 35.92C5.70667 36.5067 4.88 36.8 3.92 36.8ZM36.3625 15.2C36.3625 14.1333 36.7358 13.3333 37.4825 12.8C38.2292 12.2667 39.0825 12 40.0425 12C40.7892 12 41.4292 12.2133 41.9625 12.64C42.5492 13.0133 42.9492 13.5467 43.1625 14.24L48.1225 26.32C48.3892 27.0133 48.7625 27.36 49.2425 27.36C49.7225 27.36 50.0692 27.0133 50.2825 26.32L54.6025 14.24C54.8692 13.4933 55.2958 12.9333 55.8825 12.56C56.5225 12.1867 57.1892 12 57.8825 12C58.7892 12 59.6158 12.2933 60.3625 12.88C61.1625 13.4667 61.5625 14.24 61.5625 15.2C61.5625 15.7333 61.4558 16.24 61.2425 16.72L48.7625 45.52C48.3892 46.32 47.9092 46.88 47.3225 47.2C46.7892 47.5733 46.2292 47.76 45.6425 47.76C44.6825 47.76 43.8025 47.4133 43.0025 46.72C42.2558 46.08 41.8825 45.3067 41.8825 44.4C41.8825 43.92 41.9892 43.4933 42.2025 43.12L46.5225 35.44C45.6158 35.1733 44.8958 34.5067 44.3625 33.44L36.6025 16.64C36.4425 16.16 36.3625 15.68 36.3625 15.2ZM84.775 36.8C82.3217 36.8 80.0283 36.4 77.895 35.6C75.7617 34.7467 74.0817 33.6267 72.855 32.24C72.2683 31.6 71.975 30.8533 71.975 30C71.975 29.0933 72.3217 28.2933 73.015 27.6C73.7083 26.9067 74.535 26.56 75.495 26.56C76.4017 26.56 77.175 26.88 77.815 27.52C78.7217 28.3733 79.8683 29.04 81.255 29.52C82.6417 30 84.0017 30.24 85.335 30.24C86.7217 30.24 87.9217 29.9467 88.935 29.36C89.9483 28.72 90.455 27.7333 90.455 26.4C90.455 25.28 89.975 24.4267 89.015 23.84C88.1083 23.2 86.5617 22.6933 84.375 22.32C80.4817 21.68 77.5483 20.6133 75.575 19.12C73.6017 17.5733 72.615 15.4133 72.615 12.64C72.615 9.65333 73.7617 7.28 76.055 5.52C78.3483 3.70667 81.3617 2.8 85.095 2.8C88.935 2.8 92.0017 3.78666 94.295 5.76C95.2017 6.50666 95.655 7.38666 95.655 8.4C95.655 9.25333 95.3083 10 94.615 10.64C93.975 11.2267 93.2017 11.52 92.295 11.52C91.6017 11.52 90.9617 11.3333 90.375 10.96C88.3483 9.68 86.215 9.04 83.975 9.04C82.6417 9.04 81.5217 9.30667 80.615 9.84C79.7083 10.3733 79.255 11.1733 79.255 12.24C79.255 13.36 79.9483 14.24 81.335 14.88C82.775 15.52 84.855 16.1067 87.575 16.64C89.0683 16.9067 90.535 17.3867 91.975 18.08C93.4683 18.72 94.695 19.7067 95.655 21.04C96.6683 22.3733 97.175 24.1867 97.175 26.48C97.175 29.52 96.0017 32 93.655 33.92C91.3617 35.84 88.4017 36.8 84.775 36.8ZM102.003 36.8C100.99 36.8 100.136 36.5067 99.4431 35.92C98.7498 35.3333 98.4031 34.5867 98.4031 33.68V3.92C98.4031 3.06666 98.7231 2.34666 99.3631 1.76C100.056 1.12 100.936 0.799998 102.003 0.799998C103.016 0.799998 103.843 1.12 104.483 1.76C105.123 2.34666 105.443 3.09333 105.443 4V17.76C105.443 18.4 105.63 18.72 106.003 18.72C106.11 18.72 106.323 18.6133 106.643 18.4L114.403 12.64C115.043 12.2133 115.736 12 116.483 12C117.39 12 118.136 12.32 118.723 12.96C119.31 13.6 119.603 14.3467 119.603 15.2C119.603 16.3733 119.07 17.3067 118.003 18L111.683 22.16C111.15 22.5333 110.883 22.9333 110.883 23.36C110.883 23.7867 111.096 24.1333 111.523 24.4L118.803 30.96C119.283 31.3333 119.603 31.76 119.763 32.24C119.923 32.72 120.003 33.1733 120.003 33.6C120.003 34.4533 119.656 35.2 118.963 35.84C118.323 36.48 117.55 36.8 116.643 36.8C115.736 36.8 114.936 36.4533 114.243 35.76L106.403 28.08C106.243 27.92 106.056 27.84 105.843 27.84C105.576 27.84 105.443 28.0533 105.443 28.48V33.6C105.443 34.5067 105.096 35.28 104.403 35.92C103.763 36.5067 102.963 36.8 102.003 36.8ZM123.708 36.8C122.695 36.8 121.841 36.5067 121.148 35.92C120.455 35.3333 120.108 34.5867 120.108 33.68V15.52C120.108 14.6667 120.428 13.9467 121.068 13.36C121.761 12.72 122.641 12.4 123.708 12.4C124.775 12.4 125.601 12.72 126.188 13.36C126.828 13.9467 127.148 14.6933 127.148 15.6V33.6C127.148 34.5067 126.801 35.28 126.108 35.92C125.468 36.5067 124.668 36.8 123.708 36.8ZM123.708 8.4C122.588 8.4 121.628 8.05333 120.828 7.36C120.028 6.61333 119.628 5.68 119.628 4.56C119.628 3.54666 120.028 2.66666 120.828 1.92C121.628 1.17333 122.588 0.799998 123.708 0.799998C124.775 0.799998 125.681 1.17333 126.428 1.92C127.228 2.66666 127.628 3.54666 127.628 4.56C127.628 5.68 127.228 6.61333 126.428 7.36C125.681 8.05333 124.775 8.4 123.708 8.4ZM133.302 36.8C132.289 36.8 131.435 36.5067 130.742 35.92C130.049 35.3333 129.702 34.5867 129.702 33.68V3.92C129.702 3.06666 130.022 2.34666 130.662 1.76C131.355 1.12 132.235 0.799998 133.302 0.799998C134.315 0.799998 135.142 1.12 135.782 1.76C136.422 2.34666 136.742 3.09333 136.742 4V33.6C136.742 34.5067 136.395 35.28 135.702 35.92C135.062 36.5067 134.262 36.8 133.302 36.8ZM142.896 36.8C141.882 36.8 141.029 36.5067 140.336 35.92C139.642 35.3333 139.296 34.5867 139.296 33.68V3.92C139.296 3.06666 139.616 2.34666 140.256 1.76C140.949 1.12 141.829 0.799998 142.896 0.799998C143.909 0.799998 144.736 1.12 145.376 1.76C146.016 2.34666 146.336 3.09333 146.336 4V33.6C146.336 34.5067 145.989 35.28 145.296 35.92C144.656 36.5067 143.856 36.8 142.896 36.8ZM157.129 36.8C153.503 36.8 150.516 36.0533 148.169 34.56C147.689 34.24 147.343 33.8667 147.129 33.44C146.916 32.96 146.809 32.5067 146.809 32.08C146.809 31.1733 147.103 30.3467 147.689 29.6C148.329 28.8533 149.103 28.48 150.009 28.48C150.436 28.48 150.863 28.5867 151.289 28.8C152.249 29.2267 153.343 29.6 154.569 29.92C155.796 30.1867 156.916 30.32 157.929 30.32C159.903 30.32 160.889 29.8667 160.889 28.96C160.889 28.4267 160.649 27.9733 160.169 27.6C159.689 27.1733 158.569 26.88 156.809 26.72C156.116 26.6667 155.209 26.56 154.089 26.4C153.023 26.24 151.956 25.9467 150.889 25.52C149.823 25.04 148.916 24.3467 148.169 23.44C147.476 22.5333 147.129 21.3067 147.129 19.76C147.129 17.36 148.036 15.4667 149.849 14.08C151.663 12.6933 154.089 12 157.129 12C158.889 12 160.543 12.1867 162.089 12.56C163.689 12.9333 164.889 13.4933 165.689 14.24C166.436 14.9333 166.809 15.7333 166.809 16.64C166.809 17.44 166.516 18.16 165.929 18.8C165.343 19.44 164.596 19.76 163.689 19.76C163.209 19.76 162.756 19.6533 162.329 19.44C161.689 19.0133 160.863 18.6933 159.849 18.48C158.889 18.2667 157.903 18.16 156.889 18.16C154.863 18.16 153.849 18.5867 153.849 19.44C153.849 19.8133 154.036 20.16 154.409 20.48C154.836 20.7467 155.769 20.9867 157.209 21.2C158.116 21.3067 159.156 21.4667 160.329 21.68C161.503 21.84 162.623 22.16 163.689 22.64C164.809 23.0667 165.743 23.7867 166.489 24.8C167.236 25.8133 167.609 27.2 167.609 28.96C167.609 31.36 166.649 33.28 164.729 34.72C162.809 36.1067 160.276 36.8 157.129 36.8Z" fill="#F59E0B"/>
<path d="M173.373 38C172.093 38 170.999 37.6 170.092 36.8C169.239 36 168.813 35.04 168.813 33.92C168.813 32.7467 169.239 31.7333 170.092 30.88C170.999 30.0267 172.093 29.6 173.373 29.6C174.546 29.6 175.533 30.0267 176.333 30.88C177.186 31.7333 177.613 32.7467 177.613 33.92C177.613 35.04 177.186 36 176.333 36.8C175.533 37.6 174.546 38 173.373 38Z" fill="#181670"/>
</svg>
