<svg width="114" height="38" viewBox="0 0 114 38" fill="none" xmlns="http://www.w3.org/2000/svg">
<path d="M14 36.8C12.9867 36.8 12.1333 36.5067 11.44 35.92C10.7467 35.28 10.4 34.4533 10.4 33.44V12.56C10.4 10.96 9.6 10.16 8 10.16H4.08C3.12 10.16 2.32 9.86667 1.68 9.28C1.09333 8.64 0.8 7.84 0.8 6.88C0.8 5.92 1.09333 5.14666 1.68 4.56C2.32 3.92 3.12 3.6 4.08 3.6H23.84C24.8533 3.6 25.6533 3.92 26.24 4.56C26.88 5.14666 27.2 5.92 27.2 6.88C27.2 7.84 26.88 8.64 26.24 9.28C25.6533 9.86667 24.8533 10.16 23.84 10.16H20C18.4 10.16 17.6 10.96 17.6 12.56V33.44C17.6 34.4533 17.2533 35.28 16.56 35.92C15.92 36.5067 15.0667 36.8 14 36.8ZM36.1775 36.8C33.8842 36.8 31.7775 36.2667 29.8575 35.2C27.9375 34.1333 26.3908 32.6667 25.2175 30.8C24.0975 28.88 23.5375 26.72 23.5375 24.32C23.5375 21.8667 24.0975 19.7333 25.2175 17.92C26.3908 16.0533 27.9375 14.6133 29.8575 13.6C31.7775 12.5333 33.8842 12 36.1775 12C38.5242 12 40.6308 12.5333 42.4975 13.6C44.4175 14.6133 45.9375 16.0533 47.0575 17.92C48.1775 19.7333 48.7375 21.8667 48.7375 24.32C48.7375 26.72 48.1775 28.88 47.0575 30.8C45.9375 32.6667 44.4175 34.1333 42.4975 35.2C40.6308 36.2667 38.5242 36.8 36.1775 36.8ZM36.1775 30.32C37.8308 30.32 39.1642 29.76 40.1775 28.64C41.2442 27.4667 41.7775 26.0267 41.7775 24.32C41.7775 22.56 41.2442 21.1467 40.1775 20.08C39.1642 19.0133 37.8308 18.48 36.1775 18.48C34.5775 18.48 33.2175 19.0133 32.0975 20.08C31.0308 21.1467 30.4975 22.56 30.4975 24.32C30.4975 26.0267 31.0308 27.4667 32.0975 28.64C33.2175 29.76 34.5775 30.32 36.1775 30.32ZM61.3963 36.8C59.1029 36.8 56.9963 36.2667 55.0763 35.2C53.1563 34.1333 51.6096 32.6667 50.4363 30.8C49.3163 28.88 48.7563 26.72 48.7563 24.32C48.7563 21.8667 49.3163 19.7333 50.4363 17.92C51.6096 16.0533 53.1563 14.6133 55.0763 13.6C56.9963 12.5333 59.1029 12 61.3963 12C63.7429 12 65.8496 12.5333 67.7162 13.6C69.6363 14.6133 71.1563 16.0533 72.2763 17.92C73.3963 19.7333 73.9563 21.8667 73.9563 24.32C73.9563 26.72 73.3963 28.88 72.2763 30.8C71.1563 32.6667 69.6363 34.1333 67.7162 35.2C65.8496 36.2667 63.7429 36.8 61.3963 36.8ZM61.3963 30.32C63.0496 30.32 64.3829 29.76 65.3963 28.64C66.4629 27.4667 66.9963 26.0267 66.9963 24.32C66.9963 22.56 66.4629 21.1467 65.3963 20.08C64.3829 19.0133 63.0496 18.48 61.3963 18.48C59.7963 18.48 58.4363 19.0133 57.3163 20.08C56.2496 21.1467 55.7163 22.56 55.7163 24.32C55.7163 26.0267 56.2496 27.4667 57.3163 28.64C58.4363 29.76 59.7963 30.32 61.3963 30.32ZM78.4738 36.8C77.4604 36.8 76.6071 36.5067 75.9138 35.92C75.2204 35.3333 74.8738 34.5867 74.8738 33.68V3.92C74.8738 3.06666 75.1938 2.34666 75.8338 1.76C76.5271 1.12 77.4071 0.799998 78.4738 0.799998C79.4871 0.799998 80.3138 1.12 80.9538 1.76C81.5938 2.34666 81.9138 3.09333 81.9138 4V33.6C81.9138 34.5067 81.5671 35.28 80.8738 35.92C80.2338 36.5067 79.4338 36.8 78.4738 36.8ZM92.7075 36.8C89.0808 36.8 86.0942 36.0533 83.7475 34.56C83.2675 34.24 82.9208 33.8667 82.7075 33.44C82.4942 32.96 82.3875 32.5067 82.3875 32.08C82.3875 31.1733 82.6808 30.3467 83.2675 29.6C83.9075 28.8533 84.6808 28.48 85.5875 28.48C86.0142 28.48 86.4408 28.5867 86.8675 28.8C87.8275 29.2267 88.9208 29.6 90.1475 29.92C91.3742 30.1867 92.4942 30.32 93.5075 30.32C95.4808 30.32 96.4675 29.8667 96.4675 28.96C96.4675 28.4267 96.2275 27.9733 95.7475 27.6C95.2675 27.1733 94.1475 26.88 92.3875 26.72C91.6942 26.6667 90.7875 26.56 89.6675 26.4C88.6008 26.24 87.5342 25.9467 86.4675 25.52C85.4008 25.04 84.4942 24.3467 83.7475 23.44C83.0542 22.5333 82.7075 21.3067 82.7075 19.76C82.7075 17.36 83.6142 15.4667 85.4275 14.08C87.2408 12.6933 89.6675 12 92.7075 12C94.4675 12 96.1208 12.1867 97.6675 12.56C99.2675 12.9333 100.468 13.4933 101.268 14.24C102.014 14.9333 102.388 15.7333 102.388 16.64C102.388 17.44 102.094 18.16 101.508 18.8C100.921 19.44 100.174 19.76 99.2675 19.76C98.7875 19.76 98.3342 19.6533 97.9075 19.44C97.2675 19.0133 96.4408 18.6933 95.4275 18.48C94.4675 18.2667 93.4808 18.16 92.4675 18.16C90.4408 18.16 89.4275 18.5867 89.4275 19.44C89.4275 19.8133 89.6142 20.16 89.9875 20.48C90.4142 20.7467 91.3475 20.9867 92.7875 21.2C93.6942 21.3067 94.7342 21.4667 95.9075 21.68C97.0808 21.84 98.2008 22.16 99.2675 22.64C100.388 23.0667 101.321 23.7867 102.068 24.8C102.814 25.8133 103.188 27.2 103.188 28.96C103.188 31.36 102.228 33.28 100.308 34.72C98.3875 36.1067 95.8542 36.8 92.7075 36.8Z" fill="#F59E0B"/>
<path d="M108.951 38C107.671 38 106.577 37.6 105.671 36.8C104.817 36 104.391 35.04 104.391 33.92C104.391 32.7467 104.817 31.7333 105.671 30.88C106.577 30.0267 107.671 29.6 108.951 29.6C110.124 29.6 111.111 30.0267 111.911 30.88C112.764 31.7333 113.191 32.7467 113.191 33.92C113.191 35.04 112.764 36 111.911 36.8C111.111 37.6 110.124 38 108.951 38Z" fill="#181670"/>
</svg>
